<svg width="316" height="270" viewBox="0 0 316 270" fill="none" xmlns="http://www.w3.org/2000/svg">
<path d="M39.1056 176.34C109.155 202.099 161.269 225.645 224.082 220.989C288.165 216.239 359.075 164.463 351.313 89.5563" stroke="#B1B1B1" stroke-width="2" stroke-dasharray="8 4"/>
<path d="M21.1232 170.898L21.6271 169.222L24.9789 170.23L25.3255 171.248L24.475 171.906L21.1232 170.898Z" fill="#686386"/>
<path d="M9.6559 166.549L4.81447 171.129L3.04785 170.588L7.80095 165.982L6.42977 159.5L8.19639 160.041L9.6559 166.549Z" fill="#6A668B"/>
<path d="M6.30335 165.483L11.1713 160.923L22.2828 164.321L23.7728 170.825L18.9048 175.385L7.79327 171.987L6.30335 165.483Z" fill="#FED505"/>
<path d="M6.27435 165.456L11.1428 160.927L22.283 164.332L23.7889 170.808L6.27435 165.456Z" fill="#F9BA00"/>
<path d="M11.2214 160.926L16.8842 155.413L23.4808 157.43L22.7809 162.25L20.1505 163.656L11.2214 160.926Z" fill="#DBDBE4"/>
<path d="M7.9118 172.036L9.52815 179.777L16.1247 181.794L18.2364 177.405L16.8409 174.767L7.9118 172.036Z" fill="#DBDBE4"/>
<path d="M15.6169 168.315L20.4583 163.735L22.225 164.276L17.4719 168.882L18.843 175.364L17.0764 174.823L15.6169 168.315Z" fill="#6A668B"/>
<path d="M11.5466 167.092L16.388 162.512L18.1547 163.053L13.4016 167.66L14.7727 174.141L13.0061 173.6L11.5466 167.092Z" fill="#6A668B"/>
</svg>
