<svg width="296" height="182" viewBox="0 0 296 182" fill="none" xmlns="http://www.w3.org/2000/svg">
<path d="M37.0441 169.665C111.544 174.068 168.231 181.45 227.043 159.391C287.044 136.887 340.045 68.3948 311.044 0.392273" stroke="#B1B1B1" stroke-width="2" stroke-dasharray="8 4"/>
<path d="M18.2562 169.632L18.2562 167.92L21.7562 167.92L22.3812 168.776L21.7562 169.632L18.2562 169.632Z" fill="#686386"/>
<path d="M6.02232 168.788L2.70448 174.443L0.856953 174.434L4.08242 168.778L0.903139 163.091L2.75066 163.1L6.02232 168.788Z" fill="#6A668B"/>
<path d="M2.50478 168.733L5.85371 163.089L17.4731 163.143L20.7726 168.818L17.4237 174.462L5.80436 174.408L2.50478 168.733Z" fill="#FED505"/>
<path d="M2.46924 168.716L5.82759 163.101L17.4762 163.153L20.7831 168.797L2.46924 168.716Z" fill="#F9BA00"/>
<path d="M5.90247 163.077L9.73843 156.317L16.6364 156.349L17.3538 161.062L15.2396 163.12L5.90247 163.077Z" fill="#DBDBE4"/>
<path d="M5.93188 174.421L9.70856 181.219L16.6065 181.25L17.3651 176.543L15.269 174.464L5.93188 174.421Z" fill="#DBDBE4"/>
<path d="M12.2392 168.763L15.557 163.108L17.4045 163.117L14.1791 168.772L17.3583 174.459L15.5108 174.45L12.2392 168.763Z" fill="#6A668B"/>
<path d="M7.98916 168.764L11.307 163.109L13.1545 163.118L9.92906 168.773L13.1083 174.46L11.2608 174.451L7.98916 168.764Z" fill="#6A668B"/>
</svg>
