<svg width="210" height="182" viewBox="0 0 210 182" fill="none" xmlns="http://www.w3.org/2000/svg">
<path d="M179.872 78.5198C150.635 55.5869 122.439 32.3164 86.9753 33.5609C51.5115 34.8055 24.4969 70.4289 8.15153 110.207" stroke="#B1B1B1" stroke-width="2" stroke-dasharray="8 4"/>
<path d="M193.336 95.8205L199.826 94.8625L201.072 96.4149L194.645 97.4506L192.537 103.868L191.291 102.316L193.336 95.8205Z" fill="#6A668B"/>
<path d="M195.706 99.0672L189.424 100.006L181.924 90.6434L183.915 84.3476L190.197 83.4089L197.697 92.7714L195.706 99.0672Z" fill="#FED505"/>
<path d="M195.478 99.0691L189.298 99.9414L181.838 90.7076L183.751 84.5519L195.478 99.0691Z" fill="#F9BA00"/>
<path d="M188.878 100.098L181.475 101.361L177.026 95.8086L179.988 92.209L182.856 92.5832L188.878 100.098Z" fill="#DBDBE4"/>
<path d="M198.123 92.5254L200.618 85.1343L196.168 79.5823L192.253 81.9951L192.1 85.0102L198.123 92.5254Z" fill="#DBDBE4"/>
<path d="M189.506 91.4368L183.017 92.3949L181.771 90.8424L188.198 89.8067L190.306 83.3892L191.552 84.9416L189.506 91.4368Z" fill="#6A668B"/>
<path d="M192.237 94.6939L185.748 95.6519L184.502 94.0995L190.929 93.0638L193.037 86.6462L194.283 88.1987L192.237 94.6939Z" fill="#6A668B"/>
</svg>
