<svg width="34" height="34" viewBox="0 0 34 34" fill="none" xmlns="http://www.w3.org/2000/svg">
<path d="M20.6978 21.933L21.9352 20.6956L24.4101 23.1704L24.2333 24.2311L23.1726 24.4079L20.6978 21.933Z" fill="#48436A"/>
<path d="M12.6932 12.6903L6.23361 14.4212L4.90779 13.0954L11.3011 11.2982L13.0983 4.90489L14.4241 6.23071L12.6932 12.6903Z" fill="#48436A"/>
<path d="M10.1406 10.1385L16.6002 8.40768L24.8645 16.672L23.1336 23.1316L16.674 24.8625L8.40971 16.5982L10.1406 10.1385Z" fill="#FED505"/>
<path d="M10.141 10.1386L16.6007 8.40771L24.865 16.672L23.1341 23.1316L10.141 10.1386Z" fill="#F9BA00"/>
<path opacity="0.3" d="M16.6635 8.47108L24.2759 6.27242L29.1815 11.178L26.2978 15.1113H23.3037L16.6635 8.47108Z" fill="#DBDBE4"/>
<path opacity="0.3" d="M8.47301 16.6615L6.27258 24.2757L11.1781 29.1813L15.1126 26.2964L15.1132 23.3017L8.47301 16.6615Z" fill="#DBDBE4"/>
<path d="M17.0351 17.0326L23.4947 15.3017L24.8205 16.6275L18.4272 18.4247L16.6301 24.818L15.3042 23.4922L17.0351 17.0326Z" fill="#6A668B"/>
<path d="M14.0292 14.0272L20.4889 12.2964L21.8147 13.6222L15.4213 15.4193L13.6242 21.8127L12.2984 20.4868L14.0292 14.0272Z" fill="#6A668B"/>
</svg>
