<svg width="447" height="453" viewBox="0 0 447 453" fill="none" xmlns="http://www.w3.org/2000/svg">
<path d="M82.6365 147.426C92.2066 176.762 118.285 239.629 158.643 233.715C210.818 226.069 215.494 177.665 210.203 163.43C202.11 141.657 175.694 138.505 168.497 162.171C158.609 194.684 190.891 242.952 237.711 233.124C315.51 216.792 403.399 239.022 356.876 342.752" stroke="#B1B1B1" stroke-width="2" stroke-dasharray="8 4"/>
<path d="M79.3849 137.99L81.0947 137.617L81.8404 141.036L81.1186 141.833L80.1305 141.409L79.3849 137.99Z" fill="#686386"/>
<path d="M77.6428 125.888L71.2718 123.855L70.8724 122.023L77.2234 123.965L82.1896 119.556L82.589 121.388L77.6428 125.888Z" fill="#6A668B"/>
<path d="M76.8741 122.362L83.2451 124.395L85.7349 135.815L80.7887 140.315L74.4177 138.282L71.9279 126.863L76.8741 122.362Z" fill="#FED505"/>
<path d="M76.8738 122.362L83.2447 124.395L85.7346 135.815L80.7883 140.315L76.8738 122.362Z" fill="#F9BA00"/>
<path d="M83.2645 124.483L90.8583 126.745L92.3362 133.523L87.7846 135.275L85.265 133.658L83.2645 124.483Z" fill="#DBDBE4"/>
<path d="M71.947 126.951L65.9819 132.17L67.4598 138.948L72.3293 138.646L73.9476 136.127L71.947 126.951Z" fill="#DBDBE4"/>
<path d="M78.9511 131.888L85.322 133.921L85.7215 135.753L79.3705 133.812L74.4043 138.221L74.0048 136.389L78.9511 131.888Z" fill="#6A668B"/>
<path d="M78.046 127.736L84.417 129.769L84.8164 131.601L78.4655 129.66L73.4992 134.069L73.0998 132.237L78.046 127.736Z" fill="#6A668B"/>
</svg>
