<svg width="370" height="393" viewBox="0 0 370 393" fill="none" xmlns="http://www.w3.org/2000/svg">
<path d="M60.4994 352.543C52.2835 313.33 40.9448 225.692 90.1972 206.226C153.872 181.062 190.464 232.515 193.722 251.963C198.706 281.706 171.014 302.353 147.596 280.374C115.422 250.178 120.515 174.956 179.574 155.714C253.343 131.68 319.425 79.4311 296.937 18.1662" stroke="#B1B1B1" stroke-width="2" stroke-dasharray="8 4"/>
<path d="M62.9465 365.267L65.1123 364.58L63.7381 360.249L62.4098 359.819L61.5723 360.936L62.9465 365.267Z" fill="#686386"/>
<path d="M68.8147 380.005L62.977 386.429L63.7156 388.758L69.5903 382.45L78.0255 384.217L77.2868 381.888L68.8147 380.005Z" fill="#6A668B"/>
<path d="M70.2415 384.508L76.0695 378.094L71.4728 363.599L63.0147 361.718L57.1868 368.132L61.7834 382.628L70.2415 384.508Z" fill="#FED505"/>
<path d="M70.2543 384.494L76.0775 378.086L71.4841 363.602L63.0327 361.723L70.2543 384.494Z" fill="#F9BA00"/>
<path d="M76.0737 377.971L83.1241 370.509L80.396 361.905L74.1593 362.872L72.3808 366.326L76.0737 377.971Z" fill="#DBDBE4"/>
<path d="M61.7089 382.528L51.6445 380.497L48.9163 371.893L54.5714 369.085L58.016 370.882L61.7089 382.528Z" fill="#DBDBE4"/>
<path d="M66.4107 372.43L72.2484 366.005L71.5098 363.676L65.6352 369.984L57.1999 368.217L57.9386 370.547L66.4107 372.43Z" fill="#6A668B"/>
<path d="M68.0781 377.69L73.9158 371.266L73.1771 368.936L67.3025 375.244L58.8673 373.478L59.6059 375.807L68.0781 377.69Z" fill="#6A668B"/>
</svg>
