<svg width="34" height="33" viewBox="0 0 34 33" fill="none" xmlns="http://www.w3.org/2000/svg">
<path d="M20.3495 22.0719L21.6751 20.9295L23.96 23.5807L23.7052 24.6254L22.6344 24.7232L20.3495 22.0719Z" fill="#48436A"/>
<path d="M13.0504 12.262L6.48039 13.5101L5.25632 12.0897L11.7651 10.7707L14.0305 4.52791L15.2546 5.94822L13.0504 12.262Z" fill="#48436A"/>
<path d="M10.6937 9.52881L17.2638 8.28078L24.8938 17.1341L22.6896 23.4479L16.1196 24.6959L8.48956 15.8426L10.6937 9.52881Z" fill="#FED505"/>
<path d="M10.6941 9.52896L17.2641 8.28094L24.8941 17.1342L22.6899 23.448L10.6941 9.52896Z" fill="#F9BA00"/>
<path opacity="0.3" d="M17.3224 8.35025L25.0767 6.72102L29.6057 11.9762L26.4389 15.6853L23.4529 15.4637L17.3224 8.35025Z" fill="#DBDBE4"/>
<path opacity="0.3" d="M8.5498 15.9098L5.79188 23.3403L10.3209 28.5955L14.4582 26.0097L14.6803 23.0232L8.5498 15.9098Z" fill="#DBDBE4"/>
<path d="M17.0587 16.915L23.6287 15.667L24.8528 17.0873L18.344 18.4064L16.0786 24.6492L14.8545 23.2288L17.0587 16.915Z" fill="#6A668B"/>
<path d="M14.2847 13.6948L20.8547 12.4468L22.0788 13.8671L15.5699 15.1862L13.3046 21.4289L12.0805 20.0086L14.2847 13.6948Z" fill="#6A668B"/>
</svg>
