<svg width="536" height="539" viewBox="0 0 536 539" fill="none" xmlns="http://www.w3.org/2000/svg">
<path d="M71.8568 306.675C91.2081 271.595 139.782 197.772 189.81 215.146C254.487 237.608 248.658 300.477 238.443 317.343C222.818 343.138 188.361 340.723 184.948 308.788C180.259 264.914 233.187 211.222 290.503 235.162C362.094 265.065 446.264 268.569 469.182 207.464" stroke="#B1B1B1" stroke-width="2" stroke-dasharray="8 4"/>
<path d="M65.411 317.916L67.5008 318.808L69.2847 314.628L68.5584 313.436L67.195 313.736L65.411 317.916Z" fill="#686386"/>
<path d="M60.2457 332.914L51.6302 333.975L50.6706 336.223L59.2382 335.274L64.4791 342.115L65.4387 339.868L60.2457 332.914Z" fill="#6A668B"/>
<path d="M58.3892 337.258L66.9905 336.198L72.9622 322.213L67.7779 315.27L59.1766 316.33L53.2049 330.316L58.3892 337.258Z" fill="#FED505"/>
<path d="M58.4083 337.256L67.0023 336.197L72.9688 322.222L67.7887 315.285L58.4083 337.256Z" fill="#F9BA00"/>
<path d="M67.0739 336.108L77.2858 335.051L80.83 326.75L75.4727 323.414L71.8714 324.872L67.0739 336.108Z" fill="#DBDBE4"/>
<path d="M53.2139 330.191L46.9105 322.087L50.4548 313.786L56.5726 315.347L58.0115 318.955L53.2139 330.191Z" fill="#DBDBE4"/>
<path d="M63.3646 325.605L71.9801 324.543L72.9397 322.296L64.3721 323.245L59.1312 316.403L58.1716 318.651L63.3646 325.605Z" fill="#6A668B"/>
<path d="M61.1971 330.679L69.8126 329.618L70.7722 327.37L62.2047 328.32L56.9637 321.478L56.0041 323.725L61.1971 330.679Z" fill="#6A668B"/>
</svg>
