<svg width="357" height="355" viewBox="0 0 357 355" fill="none" xmlns="http://www.w3.org/2000/svg">
<path d="M292.852 189.621C267.599 207.353 203.309 289.432 167.401 248.139C132.798 208.348 209.813 146.202 164.611 93.4823C116.61 37.4962 54.1302 190.513 45.6931 213.765" stroke="#B1B1B1" stroke-width="2" stroke-dasharray="8 4"/>
<path d="M301.115 184.022L299.971 182.698L297.323 184.987L297.422 186.058L298.467 186.311L301.115 184.022Z" fill="#686386"/>
<path d="M309.771 175.383L316.088 177.578L317.507 176.352L311.26 174.096L309.932 167.589L308.513 168.815L309.771 175.383Z" fill="#6A668B"/>
<path d="M312.498 173.025L306.181 170.831L297.339 178.474L298.597 185.042L304.914 187.237L313.756 179.593L312.498 173.025Z" fill="#FED505"/>
<path d="M312.5 173.024L306.183 170.829L297.341 178.472L298.599 185.041L312.5 173.024Z" fill="#F9BA00"/>
<path d="M306.113 170.886L298.68 168.141L293.432 172.678L296.023 176.81L299.009 177.027L306.113 170.886Z" fill="#DBDBE4"/>
<path d="M313.689 179.65L315.331 187.404L310.083 191.94L306.368 188.778L306.584 185.791L313.689 179.65Z" fill="#DBDBE4"/>
<path d="M305.124 179.404L298.807 177.209L297.388 178.435L303.634 180.691L304.963 187.198L306.382 185.972L305.124 179.404Z" fill="#6A668B"/>
<path d="M308.338 176.623L302.02 174.428L300.602 175.654L306.848 177.91L308.177 184.417L309.596 183.191L308.338 176.623Z" fill="#6A668B"/>
</svg>
