<svg width="277" height="270" viewBox="0 0 277 270" fill="none" xmlns="http://www.w3.org/2000/svg">
<path d="M84.3622 188.893C121.493 190.329 157.977 192.649 185.977 170.849C213.976 149.048 214.975 104.351 204.894 62.5439" stroke="#B1B1B1" stroke-width="2" stroke-dasharray="8 4"/>
<path d="M63.3112 182.771L58.616 187.352L56.6966 186.825L61.2958 182.218L59.2409 175.783L61.1604 176.31L63.3112 182.771Z" fill="#6A668B"/>
<path d="M59.4881 181.531L64.0268 177.087L75.5917 180.275L77.6704 186.542L73.1318 190.985L61.5668 187.798L59.4881 181.531Z" fill="#FED505"/>
<path d="M59.6715 181.396L64.1669 177.065L75.6233 180.172L77.6832 186.28L59.6715 181.396Z" fill="#F9BA00"/>
<path d="M64.415 176.692L69.6722 171.329L76.5316 173.218L76.2426 177.871L73.6999 179.249L64.415 176.692Z" fill="#DBDBE4"/>
<path d="M61.3658 188.247L63.6781 195.697L70.5375 197.587L72.2947 193.336L70.6507 190.804L61.3658 188.247Z" fill="#DBDBE4"/>
<path d="M68.9846 184.077L73.6798 179.496L75.5993 180.023L71.0001 184.631L73.0549 191.065L71.1355 190.538L68.9846 184.077Z" fill="#6A668B"/>
<path d="M64.8624 183.04L69.5577 178.459L71.4771 178.986L66.8779 183.593L68.9327 190.028L67.0133 189.501L64.8624 183.04Z" fill="#6A668B"/>
</svg>
