<svg width="322" height="338" viewBox="0 0 322 338" fill="none" xmlns="http://www.w3.org/2000/svg">
<path d="M78.0828 29.9848C71.7549 60.1858 63.022 127.685 100.956 142.676C149.997 162.058 178.18 122.429 180.69 107.451C184.529 84.5426 163.2 68.6408 145.164 85.5686C120.384 108.825 124.306 166.761 169.793 181.581C245.377 206.207 310.485 269.29 218.445 336.02" stroke="#B1B1B1" stroke-width="2" stroke-dasharray="8 4"/>
<path d="M79.9685 20.1831L81.6366 20.7123L80.5782 24.0484L79.5552 24.3796L78.9101 23.5193L79.9685 20.1831Z" fill="#686386"/>
<path d="M84.4908 8.82438L79.9815 3.88587L80.5485 2.09865L85.0861 6.9478L91.5893 5.60125L91.0223 7.38847L84.4908 8.82438Z" fill="#6A668B"/>
<path d="M85.5824 5.38411L90.0917 10.3226L86.5575 21.463L80.026 22.8989L75.5167 17.9604L79.0509 6.82002L85.5824 5.38411Z" fill="#FED505"/>
<path d="M85.5821 5.38428L90.0914 10.3228L86.5572 21.4631L80.0257 22.899L85.5821 5.38428Z" fill="#F9BA00"/>
<path d="M90.0649 10.4082L95.5201 16.1549L93.4223 22.7677L88.6032 22.0175L87.2253 19.3592L90.0649 10.4082Z" fill="#DBDBE4"/>
<path d="M79.0234 6.90674L71.2507 8.45706L69.1529 15.0698L73.5247 17.2354L76.1837 15.8577L79.0234 6.90674Z" fill="#DBDBE4"/>
<path d="M82.6341 14.6776L87.1434 19.6161L86.5764 21.4033L82.0388 16.5542L75.5356 17.9007L76.1026 16.1135L82.6341 14.6776Z" fill="#6A668B"/>
<path d="M83.9193 10.6273L88.4286 15.5658L87.8616 17.353L83.324 12.5039L76.8208 13.8504L77.3878 12.0632L83.9193 10.6273Z" fill="#6A668B"/>
</svg>
