<svg width="32" height="33" viewBox="0 0 32 33" fill="none" xmlns="http://www.w3.org/2000/svg">
<path d="M9.68195 19.1753L10.5907 20.6708L7.59961 22.4883L6.61111 22.0651L6.69085 20.9928L9.68195 19.1753Z" fill="#48436A"/>
<path d="M20.5592 13.5906L20.4093 6.90477L22.0117 5.9311L22.2417 12.5682L28.0267 15.83L26.4243 16.8037L20.5592 13.5906Z" fill="#48436A"/>
<path d="M23.6433 11.7165L23.7933 18.4024L13.8051 24.4715L7.94008 21.2584L7.79017 14.5726L17.7783 8.50346L23.6433 11.7165Z" fill="#FED505"/>
<path d="M23.6429 11.7163L23.7928 18.4021L13.8047 24.4713L7.93962 21.2582L23.6429 11.7163Z" fill="#F9BA00"/>
<path opacity="0.3" d="M23.7161 18.4487L24.0472 26.3654L18.1184 29.968L14.981 26.2339L15.6909 23.3252L23.7161 18.4487Z" fill="#DBDBE4"/>
<path opacity="0.3" d="M17.7015 8.5498L10.8261 4.60678L4.89736 8.20933L6.76712 12.7157L9.67629 13.4262L17.7015 8.5498Z" fill="#DBDBE4"/>
<path d="M15.3105 16.7795L15.4604 23.4654L13.8581 24.439L13.628 17.8019L7.8431 14.5401L9.44548 13.5664L15.3105 16.7795Z" fill="#6A668B"/>
<path d="M18.9433 14.5725L19.0932 21.2583L17.4909 22.232L17.2608 15.5948L11.4759 12.3331L13.0783 11.3594L18.9433 14.5725Z" fill="#6A668B"/>
</svg>
