<svg width="33" height="32" viewBox="0 0 33 32" fill="none" xmlns="http://www.w3.org/2000/svg">
<path d="M12.3314 21.0093L13.8469 21.8843L12.0969 24.9154L11.0267 25.0191L10.5814 24.0404L12.3314 21.0093Z" fill="#48436A"/>
<path d="M19.1867 10.886L15.843 5.09442L16.7805 3.47062L20.1711 9.18098L26.8117 9.26217L25.8742 10.886L19.1867 10.886Z" fill="#48436A"/>
<path d="M20.9914 7.76003L24.3352 13.5516L18.4914 23.6732L11.8039 23.6732L8.46018 17.8817L14.3039 7.76003L20.9914 7.76003Z" fill="#FED505"/>
<path d="M20.9909 7.75977L24.3346 13.5513L18.4909 23.673L11.8034 23.673L20.9909 7.75977Z" fill="#F9BA00"/>
<path opacity="0.3" d="M24.2903 13.6294L28.3842 20.4134L24.9155 26.4214L20.3699 24.654L19.5949 21.7619L24.2903 13.6294Z" fill="#DBDBE4"/>
<path opacity="0.3" d="M14.258 7.83789L6.33376 7.68314L2.86501 13.6912L6.66993 16.745L9.56272 15.9704L14.258 7.83789Z" fill="#DBDBE4"/>
<path d="M16.1164 16.2039L19.4602 21.9954L18.5227 23.6192L15.1321 17.9089L8.49143 17.8277L9.42893 16.2039L16.1164 16.2039Z" fill="#6A668B"/>
<path d="M18.2414 12.5227L21.5852 18.3143L20.6477 19.9381L17.2571 14.2277L10.6164 14.1465L11.5539 12.5227L18.2414 12.5227Z" fill="#6A668B"/>
</svg>
