<svg width="215" height="154" viewBox="0 0 215 154" fill="none" xmlns="http://www.w3.org/2000/svg">
<path d="M42.0115 107.899C51.9667 96.2364 73.5245 75.9694 94.5209 68.1947M94.5209 68.1947C105.111 64.2734 115.558 63.53 124.302 68.6715C158.018 88.4973 152.249 123.779 134.37 132.462C118.755 140.046 106.815 134.784 99.2088 118.107C93.0676 104.642 90.9123 86.3008 94.5209 68.1947ZM94.5209 68.1947C97.6276 52.6068 105.006 37.1929 117.792 25.214C162.118 -16.3166 198.674 6.09291 213.523 15.7881" stroke="#B1B1B1" stroke-width="2" stroke-dasharray="8 4"/>
<path d="M14.1405 141.886L7.5012 141.398L6.42879 142.943L13.0145 143.507L15.8824 149.427L16.9548 147.882L14.1405 141.886Z" fill="#6A668B"/>
<path d="M12.0663 144.871L18.6946 145.358L25.3685 135.745L22.5589 129.758L15.9305 129.272L9.25666 138.885L12.0663 144.871Z" fill="#FED505"/>
<path d="M12.0811 144.872L18.7038 145.358L25.372 135.753L22.5647 129.771L12.0811 144.872Z" fill="#F9BA00"/>
<path d="M18.7715 145.302L26.6096 146.03L30.5706 140.325L27.067 137.021L24.1331 137.579L18.7715 145.302Z" fill="#DBDBE4"/>
<path d="M9.2832 138.792L5.8145 131.766L9.77552 126.061L14.1281 128.145L14.6449 131.07L9.2832 138.792Z" fill="#DBDBE4"/>
<path d="M17.627 136.861L24.2663 137.349L25.3387 135.804L18.753 135.24L15.885 129.32L14.8126 130.865L17.627 136.861Z" fill="#6A668B"/>
<path d="M15.2051 140.349L21.8444 140.836L22.9168 139.292L16.3311 138.727L13.4631 132.808L12.3907 134.353L15.2051 140.349Z" fill="#6A668B"/>
</svg>
