<svg width="570" height="501" viewBox="0 0 570 501" fill="none" xmlns="http://www.w3.org/2000/svg">
<g clip-path="url(#clip0_3701_12472)">
<path opacity="0.2" d="M254.504 39.5119L181.498 159.901C172.231 175.182 171.655 193.949 179.985 209.133L245.616 328.755C253.947 343.938 269.919 353.232 287.516 353.135L426.153 352.367C443.75 352.27 460.299 342.796 469.566 327.515L542.571 207.126C551.838 191.845 552.415 173.077 544.084 157.894L478.453 38.2722C470.123 23.0884 454.15 13.7948 436.553 13.8922L297.917 14.6598C280.319 14.7571 263.77 24.2308 254.504 39.5119Z" fill="url(#paint0_linear_3701_12472)"/>
<path opacity="0.5" d="M21.4155 225.687L21.7194 329.628C21.758 342.821 28.8655 355.27 40.3647 362.286L130.957 417.556C142.457 424.571 156.6 425.087 168.061 418.909L258.349 370.238C269.81 364.061 276.846 352.127 276.808 338.934L276.504 234.993C276.465 221.8 269.358 209.351 257.859 202.335L167.266 147.065C155.767 140.05 141.623 139.534 130.162 145.712L39.8736 194.383C28.4131 200.561 21.3769 212.494 21.4155 225.687Z" fill="url(#paint1_linear_3701_12472)"/>
<g filter="url(#filter0_f_3701_12472)">
<ellipse cx="425.078" cy="460.154" rx="126.884" ry="29.3728" fill="url(#paint2_linear_3701_12472)"/>
</g>
<g filter="url(#filter1_f_3701_12472)">
<ellipse cx="108.206" cy="456.311" rx="96.6502" ry="15.9702" fill="url(#paint3_linear_3701_12472)" fill-opacity="0.5"/>
</g>
<path d="M455.653 236.811C452.853 237.211 448.487 238.644 446.653 239.311L451.153 248.811L459.653 245.311C459.32 243.977 458.053 240.411 455.653 236.811Z" fill="#4C39D0"/>
<path d="M410.631 161.638L416.465 158.314L465.987 245.987L460.153 249.311L410.631 161.638Z" fill="url(#paint4_linear_3701_12472)"/>
<ellipse cx="391.153" cy="397.311" rx="10.5" ry="12" fill="#D9D9D9" fill-opacity="0.5"/>
<path d="M455.19 269.311L471.69 279.678L393.654 393.311L377.154 382.944L455.19 269.311Z" fill="url(#paint5_linear_3701_12472)"/>
<path d="M447.28 265.034L456.755 270.441L377.399 384.68L367.923 379.273L447.28 265.034Z" fill="url(#paint6_linear_3701_12472)"/>
<path d="M298.194 462.228C298.194 462.228 298.194 446.779 306.126 437.311H458.41C458.41 437.311 465.98 448.274 467.399 462.228C459.468 473.69 418.224 474.188 383.855 475.185C349.485 476.181 302.953 471.198 298.194 462.228Z" fill="url(#paint7_linear_3701_12472)"/>
<ellipse cx="382.153" cy="438.311" rx="76.5" ry="14" fill="url(#paint8_linear_3701_12472)"/>
<path d="M375.653 377.811C388.908 377.811 401.653 385.16 401.653 397.311V434.811C401.653 434.811 392.653 436.811 377.653 436.811C362.653 436.811 353.653 435.85 353.653 435.85V397.311C353.653 385.16 362.398 377.811 375.653 377.811Z" fill="url(#paint9_linear_3701_12472)"/>
<path d="M383.153 377.311C393.371 377.311 401.653 387.084 401.653 399.14L402.312 434.884C402.312 434.884 397.122 437.107 385.559 437.107C373.997 437.107 364.653 436.349 364.653 436.349V399.14C364.653 387.084 372.936 377.311 383.153 377.311Z" fill="url(#paint10_linear_3701_12472)"/>
<path d="M390.054 413.424C390.054 413.424 381.516 412.893 380.093 412.475C372.03 410.104 369.294 403.938 368.71 396.349C368.126 388.761 372.031 377.852 380.093 376.903C388.156 375.955 390.054 376.429 390.054 376.429V413.424Z" fill="url(#paint11_linear_3701_12472)"/>
<ellipse cx="389.656" cy="394.926" rx="14.9978" ry="18.4972" fill="url(#paint12_linear_3701_12472)"/>
<ellipse cx="391.656" cy="394.926" rx="14.9978" ry="18.4972" fill="url(#paint13_linear_3701_12472)"/>
<ellipse cx="391.656" cy="394.926" rx="8.99865" ry="10.4984" fill="url(#paint14_linear_3701_12472)"/>
<path d="M352.259 143.772C337.181 137.746 270.335 146.221 263.236 156.098C254.264 174.817 275.908 204.112 286.606 216.372C307.745 240.595 347.029 260.374 357.302 247.571C367.575 234.769 377.876 199.867 382.49 182.865C385.748 170.856 371.562 151.486 352.259 143.772Z" fill="url(#paint15_radial_3701_12472)"/>
<path d="M398.54 110.499L348.676 142.973C373.126 149.944 381.255 172.614 382.264 183.077C395.964 173.012 423.37 156.417 430.923 149.262C434.478 145.895 434.647 136.059 426.068 122.684C416.283 107.427 406.594 106.806 398.54 110.499Z" fill="url(#paint16_linear_3701_12472)"/>
<path d="M354.957 138.881C377.791 146.282 386.682 166.713 388.785 178.474C386.402 180.108 384.196 181.657 382.264 183.077C381.255 172.614 373.126 149.944 348.676 142.973L354.957 138.881Z" fill="url(#paint17_linear_3701_12472)"/>
<path d="M389.498 177.866C389.498 177.866 390.911 176.552 393.908 174.546C396.906 172.54 397.807 168.414 397.807 168.414L452.193 263.011L438.583 261.892L389.498 177.866Z" fill="url(#paint18_linear_3701_12472)"/>
<path d="M397.761 168.437L406.259 163.76L457.473 251.623L448.317 257.363L397.761 168.437Z" fill="url(#paint19_linear_3701_12472)"/>
<path d="M450.242 253.311H441.509C436.361 258.151 436.654 269.311 442.654 275.311C443.267 275.494 444.818 275.311 452.54 275.311C450.702 272.671 450.242 259.544 450.242 253.311Z" fill="url(#paint20_linear_3701_12472)"/>
<path d="M468.653 282.311C468.653 282.311 459.478 281.782 457.949 281.365C449.283 279.001 446.342 272.854 445.715 265.288C445.087 257.723 449.283 246.847 457.949 245.902C466.614 244.956 468.653 245.429 468.653 245.429V282.311Z" fill="url(#paint21_linear_3701_12472)"/>
<ellipse cx="465.873" cy="263.811" rx="15" ry="18.5" fill="url(#paint22_linear_3701_12472)"/>
<ellipse cx="467.873" cy="263.811" rx="15" ry="18.5" fill="url(#paint23_linear_3701_12472)"/>
<ellipse cx="467.873" cy="263.811" rx="9" ry="10.5" fill="url(#paint24_linear_3701_12472)"/>
<path d="M329.396 185.742C341.073 197.895 366.434 229.895 356.727 247.578C346.681 260.45 307.53 241.03 286.317 217.02C275.581 204.868 252.957 176.024 261.651 157.256C275.524 141.376 320.562 176.549 329.396 185.742Z" fill="url(#paint25_radial_3701_12472)"/>
<path d="M301.326 164.754C313.357 172.09 324.089 180.83 327.963 184.771C333.807 190.714 343.052 201.476 349.756 212.987C339.048 217.727 322.364 217.376 309.592 205.264C296.816 193.148 295.223 176.876 300.241 165.744C300.584 165.382 300.947 165.052 301.326 164.754Z" fill="url(#paint26_radial_3701_12472)"/>
<path d="M62.7362 322.264C61.3783 313.164 71.0859 304.982 80.2549 304.982L234.171 304.981C239.62 304.981 244.247 308.984 245.051 314.392L260.819 420.503C261.794 427.059 256.831 432.992 250.229 433.166L93.2181 437.305C85.6445 437.505 79.1116 432.006 77.9896 424.487L62.7362 322.264Z" fill="url(#paint27_linear_3701_12472)"/>
<path d="M67.8433 321.246C66.4854 312.065 73.5089 303.811 82.6779 303.811H239.278C244.727 303.811 249.354 307.849 250.158 313.304L265.926 420.354C266.901 426.968 261.938 432.954 255.336 433.13L98.3252 437.305C90.7516 437.507 84.2187 431.959 83.0967 424.373L67.8433 321.246Z" fill="url(#paint28_linear_3701_12472)"/>
<path d="M88.1691 320.685L88.0063 319.762H94.5518L94.7146 320.685H91.9703L93.3231 328.357H92.2663L90.9134 320.685H88.1691ZM97.5621 328.357L96.4253 321.911H97.431L98.5677 328.357H97.5621ZM96.7473 320.836C96.5512 320.836 96.3706 320.771 96.2054 320.639C96.043 320.508 95.9455 320.35 95.9129 320.165C95.8804 319.98 95.9221 319.822 96.0381 319.691C96.157 319.559 96.3144 319.493 96.5104 319.493C96.7065 319.493 96.8857 319.559 97.0481 319.691C97.2133 319.822 97.3122 319.98 97.3448 320.165C97.3773 320.35 97.3342 320.508 97.2153 320.639C97.0993 320.771 96.9433 320.836 96.7473 320.836ZM100.41 328.357L99.273 321.911H100.245L100.422 322.918H100.507C100.583 322.574 100.756 322.307 101.027 322.116C101.297 321.923 101.645 321.827 102.071 321.827C102.503 321.827 102.879 321.923 103.2 322.116C103.523 322.307 103.796 322.574 104.019 322.918H104.087C104.196 322.585 104.401 322.321 104.701 322.125C105.002 321.926 105.386 321.827 105.855 321.827C106.44 321.827 106.951 322.007 107.386 322.368C107.822 322.726 108.106 323.284 108.24 324.043L109.001 328.357H107.995L107.234 324.043C107.15 323.567 106.958 323.227 106.658 323.023C106.358 322.819 106.029 322.716 105.671 322.716C105.211 322.716 104.878 322.854 104.674 323.128C104.469 323.399 104.403 323.743 104.476 324.16L105.217 328.357H104.194L103.415 323.942C103.351 323.575 103.178 323.28 102.897 323.056C102.615 322.83 102.284 322.716 101.904 322.716C101.642 322.716 101.41 322.785 101.207 322.922C101.007 323.059 100.859 323.249 100.762 323.493C100.668 323.733 100.649 324.012 100.705 324.328L101.415 328.357H100.41ZM113.607 328.491C112.977 328.491 112.409 328.354 111.903 328.08C111.399 327.803 110.98 327.417 110.646 326.921C110.314 326.423 110.09 325.844 109.973 325.184C109.857 324.524 109.876 323.942 110.032 323.438C110.19 322.932 110.464 322.537 110.854 322.255C111.247 321.969 111.739 321.827 112.33 321.827C112.671 321.827 113.017 321.883 113.369 321.995C113.722 322.107 114.056 322.288 114.373 322.54C114.69 322.789 114.966 323.119 115.2 323.531C115.434 323.942 115.605 324.448 115.711 325.05L115.785 325.469H110.739L110.588 324.613H114.611C114.547 324.25 114.416 323.925 114.218 323.64C114.023 323.354 113.776 323.129 113.477 322.964C113.18 322.799 112.85 322.716 112.487 322.716C112.086 322.716 111.757 322.814 111.499 323.01C111.243 323.203 111.065 323.455 110.963 323.766C110.862 324.076 110.842 324.409 110.905 324.764L111.005 325.335C111.091 325.822 111.249 326.235 111.479 326.573C111.712 326.909 111.997 327.165 112.335 327.341C112.672 327.515 113.044 327.601 113.451 327.601C113.715 327.601 113.947 327.565 114.147 327.492C114.35 327.417 114.516 327.305 114.646 327.156C114.776 327.005 114.864 326.818 114.909 326.594L115.928 326.863C115.883 327.187 115.762 327.473 115.564 327.719C115.365 327.962 115.1 328.152 114.769 328.29C114.438 328.424 114.051 328.491 113.607 328.491ZM117.824 328.357L116.687 321.911H117.659L117.83 322.884H117.899C117.962 322.565 118.132 322.307 118.409 322.108C118.687 321.909 119.022 321.81 119.414 321.81C119.487 321.81 119.58 321.811 119.691 321.814C119.803 321.817 119.887 321.821 119.945 321.827L120.123 322.834C120.087 322.826 120.007 322.813 119.882 322.796C119.759 322.777 119.631 322.767 119.497 322.767C119.179 322.767 118.906 322.833 118.68 322.964C118.455 323.093 118.291 323.272 118.186 323.501C118.084 323.728 118.059 323.987 118.11 324.278L118.829 328.357H117.824Z" fill="#221791"/>
<path d="M117.985 372.261C116.437 372.31 115.042 371.966 113.8 371.23C112.563 370.486 111.52 369.393 110.671 367.948C109.828 366.497 109.227 364.737 108.868 362.668C108.516 360.599 108.509 358.83 108.846 357.36C109.189 355.883 109.845 354.745 110.815 353.944C111.791 353.143 113.05 352.718 114.591 352.669C116.132 352.62 117.523 352.961 118.765 353.691C120.006 354.422 121.047 355.506 121.889 356.945C122.736 358.384 123.339 360.134 123.696 362.197C124.055 364.272 124.065 366.054 123.724 367.542C123.389 369.025 122.734 370.169 121.759 370.977C120.79 371.784 119.532 372.212 117.985 372.261ZM117.482 369.361C118.685 369.323 119.533 368.709 120.026 367.52C120.525 366.324 120.576 364.587 120.182 362.309C119.921 360.802 119.542 359.541 119.045 358.526C118.548 357.511 117.963 356.753 117.29 356.253C116.617 355.747 115.882 355.506 115.087 355.531C113.89 355.569 113.046 356.186 112.554 357.382C112.061 358.571 112.007 360.296 112.392 362.556C112.648 364.069 113.022 365.337 113.514 366.358C114.012 367.379 114.597 368.143 115.271 368.649C115.943 369.15 116.681 369.387 117.482 369.361ZM135.634 371.7C134.086 371.749 132.691 371.405 131.449 370.669C130.212 369.925 129.169 368.832 128.32 367.387C127.477 365.936 126.876 364.176 126.517 362.107C126.165 360.038 126.158 358.269 126.495 356.799C126.838 355.322 127.494 354.184 128.464 353.383C129.44 352.582 130.699 352.157 132.24 352.108C133.781 352.059 135.172 352.4 136.414 353.13C137.655 353.861 138.696 354.945 139.538 356.384C140.385 357.823 140.988 359.573 141.345 361.636C141.704 363.711 141.714 365.493 141.373 366.981C141.038 368.464 140.383 369.608 139.408 370.415C138.439 371.222 137.181 371.651 135.634 371.7ZM135.131 368.8C136.334 368.762 137.182 368.148 137.675 366.959C138.174 365.763 138.225 364.026 137.831 361.747C137.57 360.241 137.191 358.98 136.694 357.965C136.196 356.95 135.612 356.192 134.939 355.692C134.266 355.186 133.531 354.945 132.736 354.97C131.539 355.008 130.695 355.625 130.203 356.821C129.71 358.01 129.656 359.735 130.041 361.995C130.297 363.508 130.671 364.776 131.162 365.797C131.661 366.818 132.246 367.582 132.92 368.088C133.592 368.588 134.329 368.826 135.131 368.8ZM147.845 368.657C147.275 368.675 146.752 368.493 146.276 368.111C145.8 367.722 145.516 367.247 145.425 366.685C145.322 366.129 145.44 365.647 145.779 365.239C146.118 364.831 146.572 364.618 147.142 364.6C147.693 364.582 148.207 364.765 148.683 365.147C149.164 365.529 149.457 365.998 149.559 366.553C149.618 366.93 149.577 367.276 149.437 367.591C149.302 367.906 149.094 368.161 148.813 368.356C148.537 368.545 148.215 368.645 147.845 368.657ZM146.216 359.255C145.646 359.273 145.123 359.091 144.648 358.709C144.171 358.32 143.887 357.845 143.796 357.283C143.694 356.727 143.812 356.245 144.15 355.837C144.488 355.423 144.942 355.206 145.512 355.188C146.063 355.171 146.577 355.356 147.054 355.745C147.536 356.127 147.828 356.596 147.931 357.151C147.989 357.522 147.947 357.865 147.806 358.18C147.672 358.494 147.464 358.749 147.183 358.945C146.908 359.14 146.586 359.243 146.216 359.255ZM160.957 370.895C159.41 370.944 158.015 370.6 156.772 369.863C155.535 369.12 154.492 368.027 153.643 366.582C152.8 365.131 152.199 363.371 151.841 361.302C151.489 359.233 151.481 357.464 151.819 355.994C152.161 354.517 152.818 353.379 153.788 352.578C154.764 351.777 156.022 351.352 157.563 351.303C159.104 351.254 160.496 351.595 161.737 352.325C162.978 353.056 164.02 354.14 164.861 355.579C165.709 357.018 166.311 358.768 166.668 360.831C167.028 362.906 167.037 364.688 166.697 366.176C166.361 367.659 165.706 368.803 164.731 369.61C163.762 370.417 162.504 370.846 160.957 370.895ZM160.455 367.995C161.658 367.957 162.505 367.343 162.999 366.154C163.497 364.958 163.549 363.221 163.154 360.942C162.893 359.436 162.514 358.175 162.017 357.16C161.52 356.145 160.935 355.387 160.263 354.887C159.589 354.381 158.855 354.14 158.059 354.165C156.863 354.203 156.018 354.82 155.526 356.016C155.033 357.205 154.979 358.93 155.364 361.19C155.62 362.703 155.994 363.971 156.486 364.992C156.984 366.013 157.57 366.777 158.243 367.283C158.916 367.783 159.653 368.021 160.455 367.995ZM178.165 370.245C176.913 370.285 175.751 370.089 174.681 369.657C173.61 369.22 172.713 368.602 171.989 367.806C171.271 367.009 170.803 366.086 170.583 365.037L173.966 364.93C174.164 365.706 174.615 366.331 175.321 366.806C176.026 367.274 176.813 367.494 177.684 367.466C178.367 367.445 178.948 367.271 179.427 366.945C179.906 366.619 180.251 366.177 180.463 365.618C180.675 365.058 180.716 364.427 180.588 363.723C180.47 363.006 180.207 362.375 179.797 361.829C179.388 361.283 178.883 360.862 178.284 360.564C177.683 360.26 177.029 360.119 176.321 360.142C175.744 360.154 175.195 360.277 174.675 360.511C174.155 360.745 173.762 361.043 173.497 361.405L170.261 360.996L169.572 351.182L180.735 350.827L181.233 353.699L172.954 353.962L173.271 359.009L173.384 359.006C173.67 358.581 174.114 358.222 174.719 357.93C175.322 357.631 176.012 357.469 176.789 357.445C177.954 357.408 179.041 357.646 180.05 358.161C181.058 358.669 181.906 359.387 182.596 360.315C183.286 361.243 183.736 362.316 183.947 363.532C184.164 364.786 184.063 365.913 183.645 366.914C183.231 367.908 182.553 368.702 181.61 369.297C180.673 369.886 179.525 370.202 178.165 370.245ZM189.913 367.32C189.343 367.338 188.82 367.156 188.344 366.773C187.868 366.385 187.584 365.91 187.493 365.347C187.39 364.792 187.508 364.31 187.847 363.902C188.186 363.494 188.64 363.28 189.21 363.262C189.761 363.245 190.275 363.427 190.751 363.81C191.232 364.192 191.525 364.66 191.627 365.216C191.686 365.593 191.645 365.939 191.505 366.254C191.37 366.569 191.162 366.824 190.881 367.019C190.605 367.208 190.283 367.308 189.913 367.32ZM188.284 357.917C187.714 357.936 187.191 357.753 186.716 357.371C186.239 356.983 185.955 356.507 185.864 355.945C185.762 355.39 185.88 354.908 186.218 354.5C186.556 354.085 187.01 353.869 187.58 353.851C188.131 353.833 188.645 354.019 189.122 354.407C189.604 354.789 189.896 355.258 189.999 355.814C190.057 356.185 190.015 356.527 189.874 356.842C189.74 357.157 189.532 357.412 189.251 357.607C188.976 357.802 188.654 357.906 188.284 357.917ZM195.849 369.422L195.419 366.94L200.982 360.271C201.511 359.614 201.945 359.032 202.286 358.525C202.626 358.017 202.863 357.529 202.995 357.059C203.128 356.589 203.149 356.091 203.058 355.566C202.954 354.967 202.728 354.459 202.378 354.042C202.028 353.618 201.591 353.297 201.068 353.077C200.545 352.858 199.977 352.758 199.363 352.778C198.73 352.798 198.198 352.945 197.767 353.22C197.335 353.488 197.028 353.861 196.846 354.339C196.67 354.816 196.639 355.379 196.751 356.028L193.434 356.133C193.225 354.929 193.323 353.873 193.726 352.966C194.13 352.059 194.778 351.346 195.671 350.827C196.57 350.308 197.655 350.028 198.927 349.988C200.217 349.947 201.392 350.149 202.452 350.593C203.511 351.038 204.382 351.665 205.064 352.475C205.753 353.286 206.189 354.222 206.373 355.284C206.496 355.994 206.479 356.696 206.322 357.391C206.165 358.085 205.811 358.86 205.26 359.716C204.715 360.571 203.923 361.612 202.881 362.837L200.14 366.268L200.163 366.398L208.545 366.131L209.042 369.003L195.849 369.422ZM210.913 365.404L210.44 362.671L216.402 349.693L218.714 349.62L219.387 353.51L217.978 353.555L213.968 362.317L213.994 362.465L225.392 362.103L225.881 364.928L210.913 365.404ZM220.703 368.632L219.949 364.278L219.775 363.055L217.454 349.66L220.743 349.555L224.029 368.526L220.703 368.632Z" fill="#6055CF"/>
<path d="M100.367 389.16L241.377 384.428" stroke="#EEEEEE"/>
<path d="M156.831 410.591C156.568 404.037 161.682 398.518 168.236 398.282L184.966 397.681C191.615 397.441 197.129 402.779 197.106 409.432C197.085 415.658 192.198 420.781 185.979 421.096L169.26 421.941C162.681 422.274 157.095 417.173 156.831 410.591Z" fill="url(#paint29_linear_3701_12472)"/>
<path d="M157.834 409.595C157.57 403.041 162.685 397.522 169.239 397.286L185.969 396.684C192.618 396.445 198.132 401.783 198.109 408.436C198.088 414.662 193.201 419.785 186.982 420.1L170.263 420.945C163.684 421.278 158.098 416.177 157.834 409.595Z" fill="url(#paint30_linear_3701_12472)"/>
<g filter="url(#filter2_d_3701_12472)">
<path d="M175.68 404.177L180.593 408.719L176.05 413.633" stroke="#F2F2F2" stroke-width="2"/>
</g>
<g opacity="0.5" filter="url(#filter3_f_3701_12472)" style="mix-blend-mode:hard-light">
<path d="M47.7518 310.933L300.78 165.169L349.49 212.483C332.38 251.189 275.993 367.52 219.449 485.321C92.2239 526.383 -2.68921 350.691 47.7518 310.933Z" fill="url(#paint31_linear_3701_12472)"/>
</g>
<g filter="url(#filter4_f_3701_12472)" style="mix-blend-mode:lighten">
<path d="M119.104 302.19L316.724 183.513L349.707 213.022C336.184 243.436 299.506 346.653 254.813 439.216C154.255 471.48 79.2355 333.429 119.104 302.19Z" fill="url(#paint32_linear_3701_12472)"/>
</g>
</g>
<defs>
<filter id="filter0_f_3701_12472" x="281.394" y="413.981" width="287.367" height="92.3456" filterUnits="userSpaceOnUse" color-interpolation-filters="sRGB">
<feFlood flood-opacity="0" result="BackgroundImageFix"/>
<feBlend mode="normal" in="SourceGraphic" in2="BackgroundImageFix" result="shape"/>
<feGaussianBlur stdDeviation="8.4" result="effect1_foregroundBlur_3701_12472"/>
</filter>
<filter id="filter1_f_3701_12472" x="-11.2443" y="417.54" width="238.9" height="77.5404" filterUnits="userSpaceOnUse" color-interpolation-filters="sRGB">
<feFlood flood-opacity="0" result="BackgroundImageFix"/>
<feBlend mode="normal" in="SourceGraphic" in2="BackgroundImageFix" result="shape"/>
<feGaussianBlur stdDeviation="11.4" result="effect1_foregroundBlur_3701_12472"/>
</filter>
<filter id="filter2_d_3701_12472" x="171.001" y="400.442" width="15.0054" height="18.8694" filterUnits="userSpaceOnUse" color-interpolation-filters="sRGB">
<feFlood flood-opacity="0" result="BackgroundImageFix"/>
<feColorMatrix in="SourceAlpha" type="matrix" values="0 0 0 0 0 0 0 0 0 0 0 0 0 0 0 0 0 0 127 0" result="hardAlpha"/>
<feOffset dy="1"/>
<feGaussianBlur stdDeviation="2"/>
<feComposite in2="hardAlpha" operator="out"/>
<feColorMatrix type="matrix" values="0 0 0 0 1 0 0 0 0 0.45 0 0 0 0 0 0 0 0 0.5 0"/>
<feBlend mode="normal" in2="BackgroundImageFix" result="effect1_dropShadow_3701_12472"/>
<feBlend mode="normal" in="SourceGraphic" in2="effect1_dropShadow_3701_12472" result="shape"/>
</filter>
<filter id="filter3_f_3701_12472" x="12.3639" y="143.569" width="358.726" height="369.527" filterUnits="userSpaceOnUse" color-interpolation-filters="sRGB">
<feFlood flood-opacity="0" result="BackgroundImageFix"/>
<feBlend mode="normal" in="SourceGraphic" in2="BackgroundImageFix" result="shape"/>
<feGaussianBlur stdDeviation="10.8" result="effect1_foregroundBlur_3701_12472"/>
</filter>
<filter id="filter4_f_3701_12472" x="86.6061" y="161.913" width="284.701" height="303.754" filterUnits="userSpaceOnUse" color-interpolation-filters="sRGB">
<feFlood flood-opacity="0" result="BackgroundImageFix"/>
<feBlend mode="normal" in="SourceGraphic" in2="BackgroundImageFix" result="shape"/>
<feGaussianBlur stdDeviation="10.8" result="effect1_foregroundBlur_3701_12472"/>
</filter>
<linearGradient id="paint0_linear_3701_12472" x1="170.474" y1="92.507" x2="512.914" y2="356.072" gradientUnits="userSpaceOnUse">
<stop stop-color="#635EFF"/>
<stop offset="0.83831" stop-color="#DDDDFF"/>
</linearGradient>
<linearGradient id="paint1_linear_3701_12472" x1="-12.3613" y1="289.472" x2="318.29" y2="326.902" gradientUnits="userSpaceOnUse">
<stop stop-color="#D9E8FB"/>
<stop offset="0.83831" stop-color="white"/>
</linearGradient>
<linearGradient id="paint2_linear_3701_12472" x1="409.414" y1="439.831" x2="462.458" y2="563.463" gradientUnits="userSpaceOnUse">
<stop stop-color="#E2E1FF"/>
<stop offset="0.83831" stop-color="white"/>
</linearGradient>
<linearGradient id="paint3_linear_3701_12472" x1="96.2744" y1="445.261" x2="118.56" y2="518.03" gradientUnits="userSpaceOnUse">
<stop stop-color="#E9E8FF"/>
<stop offset="0.83831" stop-color="white"/>
</linearGradient>
<linearGradient id="paint4_linear_3701_12472" x1="413.385" y1="160.069" x2="463.233" y2="247.556" gradientUnits="userSpaceOnUse">
<stop stop-color="#4C39D0"/>
<stop offset="1" stop-color="#4C39D0"/>
</linearGradient>
<linearGradient id="paint5_linear_3701_12472" x1="464.412" y1="274.55" x2="384.432" y2="388.072" gradientUnits="userSpaceOnUse">
<stop stop-color="#3F2FBD"/>
<stop offset="1" stop-color="#432EC7"/>
</linearGradient>
<linearGradient id="paint6_linear_3701_12472" x1="452.693" y1="267.58" x2="371.985" y2="382.135" gradientUnits="userSpaceOnUse">
<stop stop-color="#4534B8"/>
<stop offset="1" stop-color="#8162D5"/>
</linearGradient>
<linearGradient id="paint7_linear_3701_12472" x1="298.194" y1="456.311" x2="467.399" y2="456.311" gradientUnits="userSpaceOnUse">
<stop stop-color="#6F56E5"/>
<stop offset="0.129952" stop-color="#907CFC"/>
<stop offset="1" stop-color="#231699"/>
</linearGradient>
<linearGradient id="paint8_linear_3701_12472" x1="313.98" y1="424.311" x2="471.45" y2="445.406" gradientUnits="userSpaceOnUse">
<stop stop-color="#9C79CB"/>
<stop offset="1" stop-color="#4B38D1"/>
</linearGradient>
<linearGradient id="paint9_linear_3701_12472" x1="353.653" y1="375.311" x2="396.153" y2="435.311" gradientUnits="userSpaceOnUse">
<stop stop-color="#B59CFF"/>
<stop offset="1" stop-color="#6C52E5"/>
</linearGradient>
<linearGradient id="paint10_linear_3701_12472" x1="369.153" y1="388.811" x2="406.341" y2="425.893" gradientUnits="userSpaceOnUse">
<stop stop-color="#4B37D1"/>
<stop offset="1" stop-color="#281CA6"/>
</linearGradient>
<linearGradient id="paint11_linear_3701_12472" x1="380.425" y1="376.429" x2="380.425" y2="413.424" gradientUnits="userSpaceOnUse">
<stop stop-color="#FFE957"/>
<stop offset="1" stop-color="#FF9C23"/>
</linearGradient>
<linearGradient id="paint12_linear_3701_12472" x1="385.657" y1="376.429" x2="404.654" y2="423.922" gradientUnits="userSpaceOnUse">
<stop stop-color="#FFF7CB"/>
<stop offset="1" stop-color="#FFAB12"/>
</linearGradient>
<linearGradient id="paint13_linear_3701_12472" x1="387.657" y1="376.429" x2="406.654" y2="423.922" gradientUnits="userSpaceOnUse">
<stop stop-color="#FFEE98"/>
<stop offset="1" stop-color="#FFAB12"/>
</linearGradient>
<linearGradient id="paint14_linear_3701_12472" x1="391.656" y1="384.428" x2="400.833" y2="402.333" gradientUnits="userSpaceOnUse">
<stop stop-color="#FFD554"/>
<stop offset="1" stop-color="#FFAB25"/>
</linearGradient>
<radialGradient id="paint15_radial_3701_12472" cx="0" cy="0" r="1" gradientUnits="userSpaceOnUse" gradientTransform="translate(327.049 108.715) rotate(55.0376) scale(154.513 249.517)">
<stop stop-color="#6B53E5"/>
<stop offset="0.29605" stop-color="#826CFF"/>
<stop offset="1" stop-color="#261792"/>
</radialGradient>
<linearGradient id="paint16_linear_3701_12472" x1="386.383" y1="113.772" x2="417.653" y2="162.295" gradientUnits="userSpaceOnUse">
<stop stop-color="#735AF1"/>
<stop offset="0.21385" stop-color="#826CFF"/>
<stop offset="1" stop-color="#3221AE"/>
</linearGradient>
<linearGradient id="paint17_linear_3701_12472" x1="386.384" y1="113.772" x2="417.653" y2="162.295" gradientUnits="userSpaceOnUse">
<stop stop-color="#1A009D"/>
<stop offset="0.21385" stop-color="#5C49C7"/>
<stop offset="1" stop-color="#0A0055"/>
</linearGradient>
<linearGradient id="paint18_linear_3701_12472" x1="396.39" y1="170.397" x2="450.409" y2="265.203" gradientUnits="userSpaceOnUse">
<stop stop-color="#0F0086"/>
<stop offset="1" stop-color="#4535C1"/>
</linearGradient>
<linearGradient id="paint19_linear_3701_12472" x1="402.366" y1="165.813" x2="453.007" y2="254.691" gradientUnits="userSpaceOnUse">
<stop stop-color="#4C39D0"/>
<stop offset="1" stop-color="#4C39D0"/>
</linearGradient>
<linearGradient id="paint20_linear_3701_12472" x1="445.212" y1="253.311" x2="445.212" y2="275.392" gradientUnits="userSpaceOnUse">
<stop stop-color="#E56C2C"/>
<stop offset="1" stop-color="#E56719"/>
</linearGradient>
<linearGradient id="paint21_linear_3701_12472" x1="458.305" y1="245.429" x2="458.305" y2="282.311" gradientUnits="userSpaceOnUse">
<stop stop-color="#FFE957"/>
<stop offset="1" stop-color="#FF9C23"/>
</linearGradient>
<linearGradient id="paint22_linear_3701_12472" x1="461.873" y1="245.311" x2="480.873" y2="292.811" gradientUnits="userSpaceOnUse">
<stop stop-color="#FFF7CB"/>
<stop offset="1" stop-color="#FFAB12"/>
</linearGradient>
<linearGradient id="paint23_linear_3701_12472" x1="463.873" y1="245.311" x2="482.873" y2="292.811" gradientUnits="userSpaceOnUse">
<stop stop-color="#FFE043"/>
<stop offset="1" stop-color="#FFAB12"/>
</linearGradient>
<linearGradient id="paint24_linear_3701_12472" x1="467.873" y1="253.311" x2="477.052" y2="271.219" gradientUnits="userSpaceOnUse">
<stop stop-color="#FFC82B"/>
<stop offset="1" stop-color="#FFA328"/>
</linearGradient>
<radialGradient id="paint25_radial_3701_12472" cx="0" cy="0" r="1" gradientTransform="matrix(93.8772 103.379 -82.2506 75.7654 262.111 153.056)" gradientUnits="userSpaceOnUse">
<stop stop-color="#E5840B"/>
<stop offset="0.521635" stop-color="#F3E408"/>
<stop offset="1" stop-color="#FFC105"/>
</radialGradient>
<radialGradient id="paint26_radial_3701_12472" cx="0" cy="0" r="1" gradientUnits="userSpaceOnUse" gradientTransform="translate(320.733 192.146) rotate(45.6874) scale(36.8158 30.1309)">
<stop stop-color="#FFFF21"/>
<stop offset="1" stop-color="#FFFF83"/>
</radialGradient>
<linearGradient id="paint27_linear_3701_12472" x1="108.15" y1="286.181" x2="188.556" y2="462.731" gradientUnits="userSpaceOnUse">
<stop stop-color="#CBCBE5"/>
<stop offset="1" stop-color="#C7C6E5"/>
</linearGradient>
<linearGradient id="paint28_linear_3701_12472" x1="166.862" y1="303.811" x2="206.119" y2="454.008" gradientUnits="userSpaceOnUse">
<stop stop-color="white"/>
<stop offset="1" stop-color="white"/>
</linearGradient>
<linearGradient id="paint29_linear_3701_12472" x1="218.433" y1="397.144" x2="148.038" y2="427.2" gradientUnits="userSpaceOnUse">
<stop stop-color="#FF962E"/>
<stop offset="1" stop-color="#FFB219"/>
</linearGradient>
<linearGradient id="paint30_linear_3701_12472" x1="173.774" y1="390.234" x2="192.096" y2="433.108" gradientUnits="userSpaceOnUse">
<stop stop-color="#FFE12E"/>
<stop offset="1" stop-color="#FFB219"/>
</linearGradient>
<linearGradient id="paint31_linear_3701_12472" x1="327.154" y1="175.672" x2="185.816" y2="389.073" gradientUnits="userSpaceOnUse">
<stop stop-color="#FFEE00"/>
<stop offset="0.992705" stop-color="#FFFFFE" stop-opacity="0.1"/>
</linearGradient>
<linearGradient id="paint32_linear_3701_12472" x1="339.943" y1="195.908" x2="172.311" y2="426.933" gradientUnits="userSpaceOnUse">
<stop stop-color="#FFEE00"/>
<stop offset="0.992705" stop-color="#FFFFFE" stop-opacity="0.2"/>
</linearGradient>
<clipPath id="clip0_3701_12472">
<rect width="570" height="501" fill="white"/>
</clipPath>
</defs>
</svg>
