<svg width="260" height="210" viewBox="0 0 260 210" fill="none" xmlns="http://www.w3.org/2000/svg">
<g clip-path="url(#clip0_3701_12393)">
<path d="M253.512 91.5254L214.165 22.3789C209.17 13.6021 200.065 8.15599 190.279 8.09215L113.182 7.58935C103.396 7.52552 94.4162 12.8537 89.6246 21.5667L51.875 90.2103C47.0833 98.9233 47.2082 109.698 52.2026 118.474L91.5497 187.621C96.5441 196.398 105.649 201.844 115.435 201.908L192.532 202.41C202.318 202.474 211.298 197.146 216.09 188.433L253.839 119.79C258.631 111.076 258.506 100.302 253.512 91.5254Z" fill="url(#paint0_linear_3701_12393)"/>
<path d="M14.6171 89.7633C15.112 90.4938 16.1052 90.6852 16.8361 90.1908L24.0987 85.2781C24.7201 84.8577 25.1614 84.2199 25.3357 83.4902L26.7071 77.7492C26.9126 76.8889 26.382 76.0248 25.5218 75.8188C24.6607 75.6126 23.7956 76.144 23.5902 77.0053L22.5091 81.5394C22.335 82.2693 21.8938 82.9075 21.2723 83.328L15.0445 87.5429C14.3132 88.0379 14.1218 89.0322 14.6171 89.7633Z" fill="url(#paint1_linear_3701_12393)"/>
<path d="M8.2533 85.3391C8.20673 86.2213 8.88337 86.9745 9.76548 87.0225C10.6494 87.0706 11.4047 86.3923 11.4515 85.5083L11.8496 78.0017C11.8893 77.2532 12.2077 76.5468 12.7421 76.0213L16.0686 72.7508C16.6987 72.1313 16.7075 71.1185 16.0884 70.4882C15.4693 69.8579 14.4567 69.8485 13.826 70.4671L9.6104 74.6023C9.07432 75.1282 8.75495 75.8359 8.71536 76.5858L8.2533 85.3391Z" fill="url(#paint2_linear_3701_12393)"/>
<path d="M53.4314 22.0042L56.5339 24.4806L51.6934 33.3919L51.9883 38.2202L29.0216 79.2621L22.9965 75.857L53.4314 22.0042Z" fill="url(#paint3_linear_3701_12393)"/>
<path d="M45.2801 16.5525L48.1938 18.2494L17.4154 72.71L11.6164 69.4327L34.7023 28.5066L38.3921 27.2042L45.2801 16.5525Z" fill="url(#paint4_linear_3701_12393)"/>
<path d="M48.1995 18.2526L53.9985 21.5299L23.2202 75.9905L17.4211 72.7132L48.1995 18.2526Z" fill="url(#paint5_linear_3701_12393)"/>
<path d="M22.2094 44.61C22.7528 43.6484 23.9729 43.3094 24.9346 43.8529L44.0684 54.6664C45.03 55.2098 45.369 56.4299 44.8255 57.3916L43.5204 59.701C42.9769 60.6626 41.7568 61.0016 40.7952 60.4582L21.6613 49.6447C20.6997 49.1012 20.3607 47.8811 20.9042 46.9195L22.2094 44.61Z" fill="url(#paint6_linear_3701_12393)"/>
<path d="M28.2875 34.3489C28.831 33.3873 30.0511 33.0483 31.0127 33.5918L50.1465 44.4053C51.1081 44.9487 51.4471 46.1688 50.9037 47.1305L49.5985 49.4399C49.055 50.4015 47.8349 50.7405 46.8733 50.1971L27.7395 39.3836C26.7778 38.8401 26.4388 37.62 26.9823 36.6584L28.2875 34.3489Z" fill="url(#paint7_linear_3701_12393)"/>
<path d="M10.7394 66.2391C11.2829 65.2775 12.503 64.9385 13.4646 65.4819L32.0606 75.9914C33.0222 76.5349 33.3612 77.755 32.8177 78.7166L32.0764 80.0284C31.5329 80.9901 30.3128 81.329 29.3512 80.7856L10.7552 70.2761C9.79356 69.7326 9.45457 68.5125 9.99803 67.5509L10.7394 66.2391Z" fill="url(#paint8_linear_3701_12393)"/>
<path d="M60.0426 8.76972L123.626 67.7891L109.021 83.5243L45.437 24.5049L60.0426 8.76972Z" fill="url(#paint9_linear_3701_12393)"/>
<path d="M60.0402 8.76197L123.624 67.7812L116.356 75.6113L52.7722 16.592L60.0402 8.76197Z" fill="url(#paint10_linear_3701_12393)"/>
<path d="M109.373 84.7681C104.465 80.5585 103.898 73.1671 108.108 68.2588C112.317 63.3505 119.709 62.7841 124.617 66.9937C129.525 71.2032 130.092 78.5947 125.882 83.5029C121.673 88.4112 114.281 88.9777 109.373 84.7681Z" fill="#FFAD1F"/>
<path d="M113.427 80.0426C111.128 78.0714 110.863 74.6102 112.834 72.3118C114.805 70.0134 118.267 69.7482 120.565 71.7194C122.863 73.6906 123.129 77.1518 121.157 79.4502C119.186 81.7486 115.725 82.0138 113.427 80.0426Z" fill="#FCCE0B"/>
<path d="M45.124 29.0899C40.2158 24.8803 39.6493 17.4889 43.8589 12.5806C48.0684 7.67231 55.4599 7.10589 60.3682 11.3154C65.2764 15.525 65.8429 22.9164 61.6333 27.8247C57.4238 32.733 50.0323 33.2994 45.124 29.0899Z" fill="black"/>
<path d="M46.3218 25.8322C41.4135 21.6226 40.8471 14.2312 45.0566 9.32289C49.2662 4.41462 56.6577 3.8482 61.5659 8.05776C66.4742 12.2673 67.0406 19.6588 62.8311 24.567C58.6215 29.4753 51.2301 30.0417 46.3218 25.8322Z" fill="url(#paint11_radial_3701_12393)"/>
<path d="M50.3748 21.1066C48.0764 19.1354 47.8111 15.6742 49.7823 13.3758C51.7535 11.0773 55.2148 10.8121 57.5132 12.7833C59.8116 14.7546 60.0768 18.2158 58.1056 20.5142C56.1344 22.8126 52.6732 23.0778 50.3748 21.1066Z" fill="url(#paint12_radial_3701_12393)"/>
<g opacity="0.19" filter="url(#filter0_f_3701_12393)">
<path d="M138.504 166.321C138.504 169.639 119.923 175.607 97.0036 175.607C74.0837 175.607 55.5034 169.639 55.5034 166.321C55.5034 163.002 74.0837 160.312 97.0036 160.312C119.923 160.312 138.504 163.002 138.504 166.321Z" fill="#1800B6"/>
</g>
<path opacity="0.21" d="M173.769 148.359C173.136 152.524 169.711 155.932 164.833 157.25L126.552 167.601C121.942 168.846 116.704 168.05 112.672 165.492L79.1961 144.234C74.9294 141.527 72.6717 137.255 73.3048 133.089L85.5705 52.3878C86.108 48.8511 89.4153 46.4166 92.952 46.9541L180.601 60.2757C184.138 60.8132 186.573 64.1205 186.035 67.6572L173.769 148.359Z" fill="black"/>
<path d="M92.9594 46.9549L180.601 60.2753C184.138 60.8129 186.572 64.1201 186.035 67.6568L185.269 72.6956L84.8047 57.4262L85.5706 52.3874C86.1081 48.8507 89.4153 46.4162 92.952 46.9537L92.9594 46.9549Z" fill="url(#paint13_linear_3701_12393)"/>
<path d="M112.672 165.492L79.1956 144.234C74.9288 141.527 72.6713 137.255 73.3044 133.089L84.8042 57.4263L185.269 72.6956L173.769 148.358C173.136 152.524 169.711 155.932 164.832 157.25L126.552 167.601C121.942 168.846 116.704 168.05 112.672 165.492Z" fill="url(#paint14_linear_3701_12393)"/>
<path d="M92.339 54.9263C93.4143 55.0897 94.4185 54.3505 94.5819 53.2752C94.7453 52.2 94.0061 51.1958 92.9309 51.0324C91.8556 50.8689 90.8514 51.6081 90.688 52.6834C90.5245 53.7587 91.2637 54.7629 92.339 54.9263Z" fill="white"/>
<path d="M98.1925 55.8153C99.2678 55.9788 100.272 55.2396 100.435 54.1643C100.599 53.089 99.8596 52.0848 98.7844 51.9214C97.7091 51.758 96.7049 52.4972 96.5415 53.5725C96.3781 54.6477 97.1173 55.6519 98.1925 55.8153Z" fill="white"/>
<path d="M104.039 56.7045C105.114 56.8679 106.119 56.1287 106.282 55.0534C106.446 53.9782 105.706 52.974 104.631 52.8106C103.556 52.6471 102.552 53.3863 102.388 54.4616C102.225 55.5369 102.964 56.5411 104.039 56.7045Z" fill="url(#paint15_linear_3701_12393)"/>
<path d="M128.942 77.133C129.024 76.5868 129.533 76.2102 130.079 76.2919L171.594 82.5002C172.14 82.5819 172.516 83.0909 172.435 83.6371L172.045 86.2407C171.964 86.7869 171.455 87.1635 170.908 87.0818L129.394 80.8736C128.848 80.7919 128.471 80.2829 128.553 79.7367L128.942 77.133Z" fill="url(#paint16_linear_3701_12393)"/>
<path d="M154.214 90.2566C154.294 89.7233 154.791 89.3556 155.324 89.4353L170.247 91.6669C170.78 91.7466 171.148 92.2437 171.068 92.777L170.672 95.4273C170.592 95.9606 170.095 96.3283 169.561 96.2486L154.639 94.017C154.106 93.9372 153.738 93.4402 153.818 92.9069L154.214 90.2566Z" fill="url(#paint17_linear_3701_12393)"/>
<path d="M150.106 117.732C150.185 117.199 150.682 116.831 151.216 116.911L166.138 119.142C166.671 119.222 167.039 119.719 166.959 120.252L166.563 122.902C166.483 123.436 165.986 123.804 165.453 123.724L150.531 121.492C149.997 121.412 149.63 120.915 149.709 120.382L150.106 117.732Z" fill="url(#paint18_linear_3701_12393)"/>
<path d="M94.9126 72.0204C94.9924 71.487 95.4894 71.1193 96.0228 71.1991L118.347 74.5375C118.88 74.6173 119.248 75.1143 119.168 75.6477L118.772 78.2979C118.692 78.8313 118.195 79.199 117.662 79.1192L95.3376 75.7808C94.8043 75.701 94.4365 75.204 94.5163 74.6706L94.9126 72.0204Z" fill="url(#paint19_linear_3701_12393)"/>
<path d="M93.5349 81.1826C93.6147 80.6492 94.1117 80.2815 94.645 80.3613L143.608 87.6834C144.141 87.7632 144.509 88.2602 144.429 88.7935L144.033 91.4438C143.953 91.9771 143.456 92.3448 142.923 92.2651L93.9599 84.9429C93.4265 84.8632 93.0588 84.3662 93.1386 83.8328L93.5349 81.1826Z" fill="url(#paint20_linear_3701_12393)"/>
<path d="M92.3971 90.394C92.4769 89.8606 92.9739 89.4929 93.5073 89.5727L168.766 100.824C169.299 100.903 169.667 101.4 169.587 101.934L169.191 104.584C169.111 105.117 168.614 105.485 168.08 105.405L92.8221 94.1543C92.2888 94.0746 91.921 93.5775 92.0008 93.0442L92.3971 90.394Z" fill="url(#paint21_linear_3701_12393)"/>
<path d="M133.34 105.881C133.42 105.348 133.917 104.98 134.45 105.06L167.396 109.987C167.929 110.067 168.297 110.564 168.217 111.097L167.821 113.747C167.741 114.281 167.244 114.648 166.71 114.569L133.765 109.642C133.232 109.562 132.864 109.065 132.944 108.532L133.34 105.881Z" fill="url(#paint22_linear_3701_12393)"/>
<path d="M90.8907 99.6039C90.9704 99.0706 91.4675 98.7029 92.0008 98.7826L116.015 102.374C116.548 102.454 116.916 102.951 116.836 103.484L116.44 106.134C116.36 106.668 115.863 107.035 115.33 106.955L91.3157 103.364C90.7823 103.285 90.4146 102.788 90.4943 102.254L90.8907 99.6039Z" fill="url(#paint23_linear_3701_12393)"/>
<path d="M89.4263 108.658C89.506 108.124 90.003 107.757 90.5364 107.836L139.499 115.159C140.033 115.238 140.4 115.735 140.32 116.269L139.924 118.919C139.844 119.452 139.347 119.82 138.814 119.74L89.8512 112.418C89.3179 112.338 88.9502 111.841 89.0299 111.308L89.4263 108.658Z" fill="url(#paint24_linear_3701_12393)"/>
<path d="M111.56 133.406C111.48 133.939 110.983 134.307 110.45 134.227L87.1191 130.738C86.5857 130.659 86.218 130.162 86.2978 129.628L86.6941 126.978C86.7739 126.445 87.2709 126.077 87.8042 126.157L111.135 129.646C111.668 129.726 112.036 130.223 111.956 130.756L111.56 133.406Z" fill="url(#paint25_linear_3701_12393)"/>
<path d="M122.544 125.688C122.464 126.221 121.967 126.589 121.434 126.509L88.4883 121.583C87.9549 121.503 87.5872 121.006 87.667 120.472L88.0633 117.822C88.1431 117.289 88.6401 116.921 89.1735 117.001L122.119 121.928C122.652 122.007 123.02 122.504 122.94 123.038L122.544 125.688Z" fill="url(#paint26_linear_3701_12393)"/>
</g>
<defs>
<filter id="filter0_f_3701_12393" x="33.2034" y="138.012" width="127.6" height="59.8947" filterUnits="userSpaceOnUse" color-interpolation-filters="sRGB">
<feFlood flood-opacity="0" result="BackgroundImageFix"/>
<feBlend mode="normal" in="SourceGraphic" in2="BackgroundImageFix" result="shape"/>
<feGaussianBlur stdDeviation="11.15" result="effect1_foregroundBlur_3701_12393"/>
</filter>
<linearGradient id="paint0_linear_3701_12393" x1="250.463" y1="35.4722" x2="26.1846" y2="132.018" gradientUnits="userSpaceOnUse">
<stop stop-color="#E2E1FF"/>
<stop offset="0.83831" stop-color="white"/>
</linearGradient>
<linearGradient id="paint1_linear_3701_12393" x1="25.6824" y1="75.4023" x2="16.5027" y2="91.6451" gradientUnits="userSpaceOnUse">
<stop stop-color="#8690F4"/>
<stop offset="1" stop-color="#6B5FFF"/>
</linearGradient>
<linearGradient id="paint2_linear_3701_12393" x1="16.3617" y1="70.1351" x2="7.18206" y2="86.3779" gradientUnits="userSpaceOnUse">
<stop stop-color="#8690F4"/>
<stop offset="1" stop-color="#6B5FFF"/>
</linearGradient>
<linearGradient id="paint3_linear_3701_12393" x1="56.444" y1="23.7067" x2="26.0091" y2="77.5596" gradientUnits="userSpaceOnUse">
<stop stop-color="#FEBB25"/>
<stop offset="1" stop-color="#FFB825"/>
</linearGradient>
<linearGradient id="paint4_linear_3701_12393" x1="45.3158" y1="16.5726" x2="14.5159" y2="71.0714" gradientUnits="userSpaceOnUse">
<stop stop-color="#FED63A"/>
<stop offset="1" stop-color="#FFC94A"/>
</linearGradient>
<linearGradient id="paint5_linear_3701_12393" x1="51.099" y1="19.8912" x2="20.3206" y2="74.3518" gradientUnits="userSpaceOnUse">
<stop stop-color="#FEB020"/>
<stop offset="1" stop-color="#F5A300"/>
</linearGradient>
<linearGradient id="paint6_linear_3701_12393" x1="23.2605" y1="35.1288" x2="53.5789" y2="48.9076" gradientUnits="userSpaceOnUse">
<stop stop-color="#C4CAFF"/>
<stop offset="0.362451" stop-color="#6C68F5"/>
<stop offset="0.727846" stop-color="#5E59DF"/>
</linearGradient>
<linearGradient id="paint7_linear_3701_12393" x1="29.2063" y1="26.6884" x2="52.8729" y2="30.5861" gradientUnits="userSpaceOnUse">
<stop stop-color="#C4CAFF"/>
<stop offset="0.362451" stop-color="#6C68F5"/>
<stop offset="0.727846" stop-color="#5E59DF"/>
</linearGradient>
<linearGradient id="paint8_linear_3701_12393" x1="8.44321" y1="57.0341" x2="39.8941" y2="68.4595" gradientUnits="userSpaceOnUse">
<stop stop-color="#C4CAFF"/>
<stop offset="0.362451" stop-color="#6C68F5"/>
<stop offset="0.727846" stop-color="#534EDC"/>
</linearGradient>
<linearGradient id="paint9_linear_3701_12393" x1="91.8345" y1="38.2794" x2="77.2289" y2="54.0146" gradientUnits="userSpaceOnUse">
<stop stop-color="#FEB020"/>
<stop offset="1" stop-color="#F5A300"/>
</linearGradient>
<linearGradient id="paint10_linear_3701_12393" x1="92.0118" y1="38.4384" x2="84.7439" y2="46.2685" gradientUnits="userSpaceOnUse">
<stop stop-color="#FED63A"/>
<stop offset="1" stop-color="#FFC94A"/>
</linearGradient>
<radialGradient id="paint11_radial_3701_12393" cx="0" cy="0" r="1" gradientUnits="userSpaceOnUse" gradientTransform="translate(57.483 13.7188) rotate(145.83) scale(13.703 13.703)">
<stop stop-color="#FED128"/>
<stop offset="1" stop-color="#F6A400"/>
</radialGradient>
<radialGradient id="paint12_radial_3701_12393" cx="0" cy="0" r="1" gradientUnits="userSpaceOnUse" gradientTransform="translate(58.1594 12.7251) rotate(134.52) scale(21.4991 21.4991)">
<stop stop-color="#FFEC99"/>
<stop offset="1" stop-color="#FFA600"/>
</radialGradient>
<linearGradient id="paint13_linear_3701_12393" x1="25.0668" y1="58.6816" x2="189.21" y2="62.1029" gradientUnits="userSpaceOnUse">
<stop stop-color="#9999FB"/>
<stop offset="1" stop-color="#6763EE"/>
</linearGradient>
<linearGradient id="paint14_linear_3701_12393" x1="154.97" y1="50.8582" x2="95.0857" y2="163.909" gradientUnits="userSpaceOnUse">
<stop offset="0.122306" stop-color="#938FFF"/>
<stop offset="0.44912" stop-color="#C5C6FF"/>
<stop offset="1" stop-color="#756FF4"/>
</linearGradient>
<linearGradient id="paint15_linear_3701_12393" x1="104.631" y1="52.8106" x2="104.039" y2="56.7045" gradientUnits="userSpaceOnUse">
<stop stop-color="#FBC70C"/>
<stop offset="1" stop-color="#F48B1A"/>
</linearGradient>
<linearGradient id="paint16_linear_3701_12393" x1="128.083" y1="76.2618" x2="319.428" y2="96.5559" gradientUnits="userSpaceOnUse">
<stop stop-color="white" stop-opacity="0.82"/>
<stop offset="1" stop-color="#A1A3FF"/>
</linearGradient>
<linearGradient id="paint17_linear_3701_12393" x1="184.103" y1="75.7889" x2="16.3633" y2="298.419" gradientUnits="userSpaceOnUse">
<stop stop-color="#FFCE00"/>
<stop offset="1" stop-color="#F4871B"/>
</linearGradient>
<linearGradient id="paint18_linear_3701_12393" x1="184.103" y1="75.7889" x2="16.3633" y2="298.419" gradientUnits="userSpaceOnUse">
<stop stop-color="#FFCE00"/>
<stop offset="1" stop-color="#F4871B"/>
</linearGradient>
<linearGradient id="paint19_linear_3701_12393" x1="90.5946" y1="91.0281" x2="163.499" y2="106.394" gradientUnits="userSpaceOnUse">
<stop stop-color="#414CD7"/>
<stop offset="1" stop-color="#8C8BF5"/>
</linearGradient>
<linearGradient id="paint20_linear_3701_12393" x1="90.5946" y1="91.0281" x2="163.499" y2="106.394" gradientUnits="userSpaceOnUse">
<stop stop-color="#414CD7"/>
<stop offset="1" stop-color="#8C8BF5"/>
</linearGradient>
<linearGradient id="paint21_linear_3701_12393" x1="90.5946" y1="91.0281" x2="163.499" y2="106.394" gradientUnits="userSpaceOnUse">
<stop stop-color="#414CD7"/>
<stop offset="1" stop-color="#8C8BF5"/>
</linearGradient>
<linearGradient id="paint22_linear_3701_12393" x1="90.5946" y1="91.0281" x2="163.499" y2="106.394" gradientUnits="userSpaceOnUse">
<stop stop-color="#414CD7"/>
<stop offset="1" stop-color="#8C8BF5"/>
</linearGradient>
<linearGradient id="paint23_linear_3701_12393" x1="90.5946" y1="91.0281" x2="163.499" y2="106.394" gradientUnits="userSpaceOnUse">
<stop stop-color="#414CD7"/>
<stop offset="1" stop-color="#8C8BF5"/>
</linearGradient>
<linearGradient id="paint24_linear_3701_12393" x1="90.5946" y1="91.0281" x2="163.499" y2="106.394" gradientUnits="userSpaceOnUse">
<stop stop-color="#414CD7"/>
<stop offset="1" stop-color="#8C8BF5"/>
</linearGradient>
<linearGradient id="paint25_linear_3701_12393" x1="90.5946" y1="91.0281" x2="163.499" y2="106.394" gradientUnits="userSpaceOnUse">
<stop stop-color="#414CD7"/>
<stop offset="1" stop-color="#8C8BF5"/>
</linearGradient>
<linearGradient id="paint26_linear_3701_12393" x1="90.5946" y1="91.0281" x2="163.499" y2="106.394" gradientUnits="userSpaceOnUse">
<stop stop-color="#414CD7"/>
<stop offset="1" stop-color="#8C8BF5"/>
</linearGradient>
<clipPath id="clip0_3701_12393">
<rect width="260" height="210" fill="white"/>
</clipPath>
</defs>
</svg>
