<svg width="260" height="210" viewBox="0 0 260 210" fill="none" xmlns="http://www.w3.org/2000/svg">
<g clip-path="url(#clip0_3701_12318)">
<path d="M116.596 9.52527L57.4174 62.6976C49.9057 69.4469 46.524 79.5031 48.5461 89.0782L64.4765 164.513C66.4985 174.088 73.6172 181.727 83.1509 184.553L158.26 206.815C167.794 209.641 178.294 207.224 185.806 200.475L244.984 147.302C252.496 140.553 255.878 130.497 253.856 120.922L237.925 45.4871C235.903 35.9121 228.785 28.2728 219.251 25.447L144.142 3.18486C134.608 0.35904 124.108 2.77604 116.596 9.52527Z" fill="url(#paint0_linear_3701_12318)"/>
<path opacity="0.21" d="M71.0894 149.117H83.7326V140.777H33.1857C29.3094 140.776 26.1802 136.328 26.1797 133.707V51.3393C26.18 48.5682 29.3093 46.3308 33.1857 46.3307H168.637C172.513 46.3308 175.642 48.5681 175.643 51.3393V133.707C175.642 136.328 172.513 140.777 168.637 140.777H117.091V149.117H129.736C130.123 149.117 130.436 149.431 130.436 149.818V151.752C130.436 152.139 130.123 152.454 129.736 152.454H71.0894C70.7024 152.454 70.3891 152.139 70.3891 151.752V149.818C70.3893 149.431 70.7025 149.117 71.0894 149.117Z" fill="black"/>
<path d="M168.636 46.3308C172.513 46.3308 175.642 48.5684 175.642 51.3398V129.725L175.643 133.707C175.643 136.328 172.513 140.777 168.636 140.777H33.1855C29.309 140.777 26.1798 136.328 26.1797 133.707V51.3398C26.1797 48.5685 29.3089 46.3309 33.1855 46.3308H168.636Z" fill="url(#paint1_linear_3701_12318)"/>
<path d="M29.6294 52.697C29.6294 51.5547 30.8648 50.6287 32.3887 50.6287H169.435C170.959 50.6287 172.194 51.5547 172.194 52.697V128.536C172.194 129.678 170.959 130.604 169.435 130.604H32.3887C30.8648 130.604 29.6294 129.678 29.6294 128.536V52.697Z" fill="white"/>
<path d="M117.092 140.777H83.7319V149.117H117.092V140.777Z" fill="url(#paint2_linear_3701_12318)"/>
<path d="M85.8759 140.777H83.7319V149.117H85.8759V140.777Z" fill="url(#paint3_linear_3701_12318)"/>
<path d="M129.736 149.117H71.0892C70.7023 149.117 70.3887 149.431 70.3887 149.818V151.753C70.3887 152.14 70.7023 152.453 71.0892 152.453H129.736C130.123 152.453 130.436 152.14 130.436 151.753V149.818C130.436 149.431 130.123 149.117 129.736 149.117Z" fill="url(#paint4_linear_3701_12318)"/>
<mask id="mask0_3701_12318" style="mask-type:alpha" maskUnits="userSpaceOnUse" x="29" y="50" width="144" height="81">
<path d="M29.6294 52.697C29.6294 51.5547 30.8648 50.6287 32.3887 50.6287H169.435C170.959 50.6287 172.194 51.5547 172.194 52.697V128.536C172.194 129.678 170.959 130.604 169.435 130.604H32.3887C30.8648 130.604 29.6294 129.678 29.6294 128.536V52.697Z" fill="white"/>
</mask>
<g mask="url(#mask0_3701_12318)">
<path d="M35.5858 98.1705C32.5823 98.2861 25.6742 98.4478 22.0698 98.1705V126.588C22.0698 127.975 126.152 127.166 178.193 126.588V94.0121L125.69 93.1455L122.225 91.9327L114.6 71.6592C111.77 82.2869 106.075 103.716 105.937 104.409C105.798 105.102 100.103 93.1456 97.2727 87.0809L92.5942 95.3982L85.8363 96.9577L69.5482 95.3982L65.7361 93.1455L60.0179 73.5652L50.6609 102.503C48.8704 99.6723 45.1507 93.8386 44.5962 93.1455C44.0417 92.4524 38.3582 96.2067 35.5858 98.1705Z" fill="url(#paint5_linear_3701_12318)"/>
<path d="M121.657 88.7364C122.341 90.6869 124.27 92.0162 126.444 92.0341L178.313 92.5918L176.609 94.822L126.445 94.4087C123.185 94.3819 120.291 92.3885 119.266 89.4627L114.364 75.4813L106.912 105.785C106.684 106.713 105.409 106.823 105.025 105.948L97.3608 88.4703L95.4008 92.5918C94.3991 94.6992 92.6614 96.4144 90.4749 97.4546C88.7108 98.2938 86.7312 98.6576 84.7531 98.5043L73.483 97.6311C72.4807 97.5535 71.4919 97.3531 70.5415 97.0369C66.8712 95.8158 64.0685 92.9588 63.067 89.4157L59.7659 77.7374L52.2139 103.906C51.9725 104.742 50.8518 104.892 50.399 104.149L44.3711 94.25L38.7871 97.7756C37.144 98.8128 35.1723 99.2932 33.1916 99.1398L21.4415 99.1398L21.4385 96.7723L33.375 96.7725C34.7897 96.882 36.1977 96.5391 37.3713 95.7984L42.9565 92.2728C44.1677 91.5086 45.8223 91.8806 46.5541 93.0818L50.7376 99.9527L58.8162 71.9673C59.0951 71.001 60.4657 71.0048 60.7393 71.9727L65.5016 88.8241C66.2866 91.6013 68.4837 93.8408 71.3607 94.798C72.1056 95.0458 72.8808 95.203 73.6664 95.2639L84.9365 96.1371C86.453 96.2546 87.9709 95.976 89.3233 95.3327C90.9996 94.5353 92.3317 93.2198 93.0997 91.6042L95.0584 87.4825C95.9596 85.5868 98.84 85.648 99.6876 87.5807L105.524 100.888L113.13 69.963C113.368 68.9973 114.716 68.9326 115.045 69.871L121.657 88.7364Z" fill="url(#paint6_linear_3701_12318)"/>
<g filter="url(#filter0_f_3701_12318)">
<path d="M121.657 88.7364C122.341 90.6869 124.27 92.0162 126.444 92.0341L178.313 92.5918L176.609 94.822L126.445 94.4087C123.185 94.3819 120.291 92.3885 119.266 89.4627L114.364 75.4813L106.912 105.785C106.684 106.713 105.409 106.823 105.025 105.948L97.3608 88.4703L95.4008 92.5918C94.3991 94.6992 92.6614 96.4144 90.4749 97.4546C88.7108 98.2938 86.7312 98.6576 84.7531 98.5043L73.483 97.6311C72.4807 97.5535 71.4919 97.3531 70.5415 97.0369C66.8712 95.8158 64.0685 92.9588 63.067 89.4157L59.7659 77.7374L52.2139 103.906C51.9725 104.742 50.8518 104.892 50.399 104.149L44.3711 94.25L38.7871 97.7756C37.144 98.8128 35.1723 99.2932 33.1916 99.1398L21.4415 99.1398L21.4385 96.7723L33.375 96.7725C34.7897 96.882 36.1977 96.5391 37.3713 95.7984L42.9565 92.2728C44.1677 91.5086 45.8223 91.8806 46.5541 93.0818L50.7376 99.9527L58.8162 71.9673C59.0951 71.001 60.4657 71.0048 60.7393 71.9727L65.5016 88.8241C66.2866 91.6013 68.4837 93.8408 71.3607 94.798C72.1056 95.0458 72.8808 95.203 73.6664 95.2639L84.9365 96.1371C86.453 96.2546 87.9709 95.976 89.3233 95.3327C90.9996 94.5353 92.3317 93.2198 93.0997 91.6042L95.0584 87.4825C95.9596 85.5868 98.84 85.648 99.6876 87.5807L105.524 100.888L113.13 69.963C113.368 68.9973 114.716 68.9326 115.045 69.871L121.657 88.7364Z" fill="url(#paint7_linear_3701_12318)"/>
</g>
<path d="M73.6284 93.83C75.1034 93.8285 76.3008 95.023 76.3022 96.4979C76.3037 97.9729 75.1083 99.1703 73.6333 99.1718C72.1585 99.173 70.9619 97.9776 70.9604 96.5028C70.9592 95.0281 72.1536 93.8314 73.6284 93.83Z" fill="white" stroke="#FDAF06"/>
<path d="M152.439 89.693C154.463 89.691 156.106 91.3301 156.108 93.3541C156.11 95.378 154.471 97.0208 152.447 97.0231C150.423 97.0251 148.78 95.3858 148.778 93.3619C148.776 91.3379 150.415 89.6951 152.439 89.693Z" fill="white" stroke="#4F62EB"/>
<path d="M129.027 56.9397C128.25 56.9405 127.621 57.5711 127.622 58.3483C127.622 59.1255 128.253 59.7549 129.03 59.7541C129.807 59.7534 130.437 59.1227 130.436 58.3455C130.435 57.5683 129.805 56.9389 129.027 56.9397Z" fill="#BABFFE"/>
<path d="M124.824 56.9374C124.046 56.9374 123.416 57.5674 123.416 58.3446C123.416 59.1218 124.046 59.7518 124.824 59.7518C125.601 59.7518 126.231 59.1218 126.231 58.3446C126.231 57.5674 125.601 56.9374 124.824 56.9374Z" fill="url(#paint8_linear_3701_12318)"/>
</g>
<rect x="133.245" y="56.9257" width="30.8298" height="2.89773" rx="1.44887" fill="url(#paint9_linear_3701_12318)"/>
<g opacity="0.25" filter="url(#filter1_f_3701_12318)">
<path d="M65.6812 155.244C65.6812 156.433 79.8558 158.571 97.3411 158.571C114.826 158.571 129.001 156.433 129.001 155.244C129.001 154.055 114.826 153.091 97.3411 153.091C79.8558 153.091 65.6812 154.055 65.6812 155.244Z" fill="#1800B6"/>
</g>
<g opacity="0.12" filter="url(#filter2_f_3701_12318)">
<path d="M170.559 165.125C170.559 168.163 157.626 172.169 141.672 172.169C125.718 172.169 124.045 168.163 124.045 165.125C124.045 162.088 125.718 159.625 141.672 159.625C157.626 159.625 170.559 162.088 170.559 165.125Z" fill="#1F0B9F"/>
</g>
<path d="M148.538 145.615C148.538 145.615 153.196 155.043 154.929 159.301C156.454 163.047 154.697 165.184 156.88 166.111C159.771 167.324 172.549 169.375 170.254 162.442C167.773 154.948 163.735 149.716 162.186 144.036C162.186 144.036 157.224 143.777 148.538 145.623V145.615Z" fill="url(#paint10_linear_3701_12318)"/>
<path d="M194.881 148.638C199.974 146.547 198.787 131.8 192.228 115.699C185.669 99.5984 176.224 88.2409 171.131 90.3315C166.038 92.4222 167.225 107.169 173.784 123.27C180.343 139.371 189.788 150.728 194.881 148.638Z" fill="url(#paint11_linear_3701_12318)"/>
<path d="M194.414 148.982C185.954 152.383 183.44 149.936 180.967 148.962C178.682 148.058 170.818 142.654 158.805 144.358C158.531 144.406 158.25 144.445 157.96 144.5C157.678 144.547 157.389 144.602 157.099 144.657C156.52 144.767 155.926 144.893 155.331 145.042C152.467 145.749 149.986 146.204 147.81 146.291C147.56 146.291 147.31 146.307 147.067 146.307C146.824 146.307 146.582 146.299 146.347 146.283C145.987 146.267 145.643 146.236 145.298 146.189C145.079 146.157 144.86 146.126 144.641 146.079C142.786 145.717 141.213 144.893 139.867 143.486C139.656 143.266 139.453 143.031 139.257 142.772C139.194 142.693 139.132 142.607 139.061 142.52C138.858 142.261 138.655 141.978 138.467 141.672C138.357 141.491 138.24 141.31 138.138 141.13C137.935 140.776 137.731 140.407 137.543 140.006C137.34 139.582 137.129 139.127 136.933 138.647C133.529 130.281 137.019 126.236 145.588 121.122C146.652 120.493 147.63 119.825 148.546 119.15C158.304 111.923 160.136 102.543 161.137 100.288C162.225 97.8532 163.407 93.6033 171.811 90.0762C166.185 92.7864 166.568 105.285 173.799 123.038C181.03 140.792 188.513 150.798 194.414 148.771V148.982Z" fill="url(#paint12_radial_3701_12318)"/>
<path d="M158.813 144.366C158.531 144.405 158.25 144.453 157.96 144.5C157.678 144.547 157.389 144.602 157.099 144.657C156.52 144.767 155.933 144.9 155.331 145.05C152.467 145.757 149.978 146.212 147.81 146.291C147.56 146.306 147.31 146.306 147.067 146.306C146.824 146.306 146.582 146.299 146.347 146.283C145.987 146.267 145.643 146.236 145.298 146.189C145.079 146.157 144.86 146.126 144.641 146.079C142.786 145.717 141.213 144.892 139.867 143.486C139.664 143.259 139.453 143.023 139.257 142.771C139.194 142.693 139.132 142.607 139.061 142.52C138.858 142.253 138.662 141.97 138.467 141.672C138.357 141.491 138.24 141.31 138.138 141.13C137.935 140.776 137.739 140.399 137.543 140.006C137.34 139.582 137.129 139.126 136.933 138.647C133.529 130.281 137.019 126.235 145.588 121.121C146.652 120.493 147.63 119.825 148.546 119.15C148.147 122.056 148.037 127.131 150.463 133.086C152.881 139.032 156.489 142.575 158.805 144.374C158.805 144.374 158.805 144.377 158.805 144.382L158.813 144.366Z" fill="url(#paint13_radial_3701_12318)"/>
<path fill-rule="evenodd" clip-rule="evenodd" d="M148.546 119.15C148.147 122.056 148.037 127.131 150.463 133.085C152.879 139.026 156.481 142.568 158.798 144.369C158.521 144.407 158.244 144.453 157.96 144.499C157.678 144.547 157.389 144.602 157.1 144.657C156.521 144.767 155.934 144.9 155.331 145.049C152.96 145.634 150.846 146.047 148.959 146.216C146.847 144.183 144.349 141.066 142.526 136.584C140.579 131.804 140.266 127.591 140.425 124.612C141.852 123.461 143.58 122.32 145.588 121.121C146.652 120.493 147.63 119.825 148.546 119.15ZM158.806 144.382V144.374C158.803 144.373 158.8 144.37 158.798 144.369C158.803 144.368 158.808 144.367 158.814 144.367L158.806 144.382Z" fill="url(#paint14_radial_3701_12318)"/>
<path d="M186.514 124.912L177.004 131.311C175.49 128.491 173.96 125.339 172.433 121.886C171.754 120.351 171.131 118.854 170.559 117.4L183.81 115.96L186.514 124.912Z" fill="url(#paint15_linear_3701_12318)"/>
<ellipse cx="185.17" cy="120.439" rx="1.66055" ry="4.79626" transform="rotate(-22.4077 185.17 120.439)" fill="url(#paint16_linear_3701_12318)"/>
<path d="M172.248 89.8271C167.049 93.0623 167.762 107.643 174.033 123.234C180.064 138.228 189.119 148.894 195.086 148.446C194.876 148.576 194.658 148.692 194.431 148.786C188.381 151.301 178.199 140.217 171.688 124.029C165.177 107.841 164.803 92.6787 170.852 90.1633C171.296 89.9788 171.762 89.8686 172.248 89.8271Z" fill="url(#paint17_linear_3701_12318)"/>
<path d="M28.6662 43.0128C26.5624 39.8592 21.8515 40.1025 20.0838 43.456L8.20803 65.9843C6.36787 69.4751 9.10724 73.622 13.0401 73.2992L38.5482 71.2055C42.3464 70.8938 44.4135 66.6177 42.2986 63.4475L28.6662 43.0128Z" fill="url(#paint18_linear_3701_12318)"/>
<path d="M29.7852 41.9149C27.5945 38.7502 22.7993 39.1438 21.154 42.6234L10.0925 66.0158C8.44715 69.4954 11.1856 73.4513 15.0217 73.1365L40.8108 71.0197C44.6469 70.7049 46.7037 66.3554 44.5129 63.1906L29.7852 41.9149Z" fill="url(#paint19_linear_3701_12318)"/>
<path d="M25.239 49.5181C24.0715 49.6139 23.236 50.688 23.4303 51.8432L24.7235 59.5298C24.8959 60.5543 25.824 61.2762 26.8594 61.1913L27.1838 61.1646C28.2193 61.0796 29.0172 60.216 29.0202 59.1771L29.0427 51.3825C29.0461 50.2112 28.0466 49.2876 26.8791 49.3835L25.239 49.5181Z" fill="white"/>
<path d="M25.6856 65.5172C25.7618 66.4455 26.5761 67.1363 27.5044 67.0601C28.4327 66.9839 29.1235 66.1695 29.0473 65.2412C28.9711 64.3129 28.1568 63.6221 27.2285 63.6983C26.3002 63.7745 25.6094 64.5888 25.6856 65.5172Z" fill="white"/>
<path d="M25.239 49.5181C24.0715 49.6139 23.236 50.688 23.4303 51.8432L24.7235 59.5298C24.8959 60.5543 25.824 61.2762 26.8594 61.1913L27.1838 61.1646C28.2193 61.0796 29.0172 60.216 29.0202 59.1771L29.0427 51.3825C29.0461 50.2112 28.0466 49.2876 26.8791 49.3835L25.239 49.5181Z" stroke="#F9E1B6" stroke-width="0.5"/>
<path d="M25.6856 65.5172C25.7618 66.4455 26.5761 67.1363 27.5044 67.0601C28.4327 66.9839 29.1235 66.1695 29.0473 65.2412C28.9711 64.3129 28.1568 63.6221 27.2285 63.6983C26.3002 63.7745 25.6094 64.5888 25.6856 65.5172Z" stroke="#F9E1B6" stroke-width="0.5"/>
</g>
<defs>
<filter id="filter0_f_3701_12318" x="16.8385" y="64.6018" width="166.074" height="46.5445" filterUnits="userSpaceOnUse" color-interpolation-filters="sRGB">
<feFlood flood-opacity="0" result="BackgroundImageFix"/>
<feBlend mode="normal" in="SourceGraphic" in2="BackgroundImageFix" result="shape"/>
<feGaussianBlur stdDeviation="2.3" result="effect1_foregroundBlur_3701_12318"/>
</filter>
<filter id="filter1_f_3701_12318" x="43.3812" y="130.791" width="107.92" height="50.0794" filterUnits="userSpaceOnUse" color-interpolation-filters="sRGB">
<feFlood flood-opacity="0" result="BackgroundImageFix"/>
<feBlend mode="normal" in="SourceGraphic" in2="BackgroundImageFix" result="shape"/>
<feGaussianBlur stdDeviation="11.15" result="effect1_foregroundBlur_3701_12318"/>
</filter>
<filter id="filter2_f_3701_12318" x="108.945" y="144.525" width="76.7137" height="42.7442" filterUnits="userSpaceOnUse" color-interpolation-filters="sRGB">
<feFlood flood-opacity="0" result="BackgroundImageFix"/>
<feBlend mode="normal" in="SourceGraphic" in2="BackgroundImageFix" result="shape"/>
<feGaussianBlur stdDeviation="7.55" result="effect1_foregroundBlur_3701_12318"/>
</filter>
<linearGradient id="paint0_linear_3701_12318" x1="62.4786" y1="24.4433" x2="204.58" y2="223.011" gradientUnits="userSpaceOnUse">
<stop stop-color="#E2E1FF"/>
<stop offset="0.83831" stop-color="white"/>
</linearGradient>
<linearGradient id="paint1_linear_3701_12318" x1="25.7754" y1="46.4983" x2="211.153" y2="207.933" gradientUnits="userSpaceOnUse">
<stop stop-color="#CAD1FF"/>
<stop offset="0.235455" stop-color="#6F6CFB"/>
<stop offset="0.396191" stop-color="#4A42BD"/>
</linearGradient>
<linearGradient id="paint2_linear_3701_12318" x1="48.7865" y1="114.151" x2="47.238" y2="150.142" gradientUnits="userSpaceOnUse">
<stop stop-color="#CAD1FF"/>
<stop offset="0.716437" stop-color="#6F6CFB"/>
<stop offset="1" stop-color="#4A42BD"/>
</linearGradient>
<linearGradient id="paint3_linear_3701_12318" x1="106.882" y1="144.947" x2="55.136" y2="121.877" gradientUnits="userSpaceOnUse">
<stop stop-color="#CAD1FF"/>
<stop offset="1" stop-color="#4A42BD"/>
</linearGradient>
<linearGradient id="paint4_linear_3701_12318" x1="66.3697" y1="150.825" x2="66.595" y2="154.885" gradientUnits="userSpaceOnUse">
<stop stop-color="#7B7AFF"/>
<stop offset="1" stop-color="#5E58DE"/>
</linearGradient>
<linearGradient id="paint5_linear_3701_12318" x1="74.8517" y1="127.354" x2="75.2008" y2="93.9575" gradientUnits="userSpaceOnUse">
<stop stop-color="white"/>
<stop offset="1" stop-color="#E6E5FF"/>
</linearGradient>
<linearGradient id="paint6_linear_3701_12318" x1="21.9272" y1="90.8482" x2="176.703" y2="91.3641" gradientUnits="userSpaceOnUse">
<stop offset="0.341465" stop-color="#FEC82F"/>
<stop offset="0.552596" stop-color="#95D8FF"/>
<stop offset="0.651305" stop-color="#6D95FC"/>
<stop offset="1" stop-color="#271BD3"/>
</linearGradient>
<linearGradient id="paint7_linear_3701_12318" x1="21.9272" y1="90.8482" x2="176.703" y2="91.3641" gradientUnits="userSpaceOnUse">
<stop offset="0.245192" stop-color="#FEC82F"/>
<stop offset="0.552596" stop-color="#95D8FF"/>
<stop offset="0.651305" stop-color="#6D95FC"/>
<stop offset="1" stop-color="#271BD3"/>
</linearGradient>
<linearGradient id="paint8_linear_3701_12318" x1="124.824" y1="59.7519" x2="124.824" y2="56.9374" gradientUnits="userSpaceOnUse">
<stop stop-color="#FBC70C"/>
<stop offset="1" stop-color="#F48B1A"/>
</linearGradient>
<linearGradient id="paint9_linear_3701_12318" x1="133.245" y1="58.3745" x2="179.658" y2="58.3745" gradientUnits="userSpaceOnUse">
<stop stop-color="#BABFFE"/>
<stop offset="1" stop-color="white"/>
</linearGradient>
<linearGradient id="paint10_linear_3701_12318" x1="167.481" y1="148.694" x2="153.736" y2="155.709" gradientUnits="userSpaceOnUse">
<stop stop-color="#FFDE5A"/>
<stop offset="1" stop-color="#E98500"/>
</linearGradient>
<linearGradient id="paint11_linear_3701_12318" x1="170.491" y1="113.709" x2="203.754" y2="149.888" gradientUnits="userSpaceOnUse">
<stop stop-color="#FFE957"/>
<stop offset="1" stop-color="#FEAB20"/>
</linearGradient>
<radialGradient id="paint12_radial_3701_12318" cx="0" cy="0" r="1" gradientTransform="matrix(1.53064 -95.5916 95.2333 1.45718 160.658 178.056)" gradientUnits="userSpaceOnUse">
<stop stop-color="#FF9000"/>
<stop offset="1" stop-color="#FCCE0B"/>
</radialGradient>
<radialGradient id="paint13_radial_3701_12318" cx="0" cy="0" r="1" gradientTransform="matrix(-2.44611 -30.5453 26.1428 -2.85804 148.329 146.277)" gradientUnits="userSpaceOnUse">
<stop stop-color="#F99F2A"/>
<stop offset="1" stop-color="#FCCE0B"/>
</radialGradient>
<radialGradient id="paint14_radial_3701_12318" cx="0" cy="0" r="1" gradientTransform="matrix(-1.58535 -18.3017 18.2316 -1.59145 147.524 140.155)" gradientUnits="userSpaceOnUse">
<stop stop-color="#FEC46B"/>
<stop offset="1" stop-color="#FEED9D"/>
</radialGradient>
<linearGradient id="paint15_linear_3701_12318" x1="185.093" y1="138.176" x2="179.171" y2="114.48" gradientUnits="userSpaceOnUse">
<stop stop-color="white"/>
<stop offset="0.670435" stop-color="#FFEBBB"/>
<stop offset="1" stop-color="white"/>
</linearGradient>
<linearGradient id="paint16_linear_3701_12318" x1="185.17" y1="115.642" x2="185.17" y2="125.235" gradientUnits="userSpaceOnUse">
<stop stop-color="#FE9B1E"/>
<stop offset="1" stop-color="#F9A625"/>
</linearGradient>
<linearGradient id="paint17_linear_3701_12318" x1="168.5" y1="119.794" x2="215.105" y2="109.008" gradientUnits="userSpaceOnUse">
<stop stop-color="#FF8B00"/>
<stop offset="1" stop-color="#FEAB20"/>
</linearGradient>
<linearGradient id="paint18_linear_3701_12318" x1="29.6355" y1="34.402" x2="8.78118" y2="76.7766" gradientUnits="userSpaceOnUse">
<stop stop-color="#FFDB49"/>
<stop offset="1" stop-color="#FF4600"/>
</linearGradient>
<linearGradient id="paint19_linear_3701_12318" x1="25.694" y1="45.003" x2="11.2124" y2="76.5771" gradientUnits="userSpaceOnUse">
<stop stop-color="#FFDB49"/>
<stop offset="1" stop-color="#FE802E"/>
</linearGradient>
<clipPath id="clip0_3701_12318">
<rect width="260" height="210" fill="white"/>
</clipPath>
</defs>
</svg>
