<svg width="260" height="210" viewBox="0 0 260 210" fill="none" xmlns="http://www.w3.org/2000/svg">
<g clip-path="url(#clip0_3701_12239)">
<path d="M104.845 193.405L179.764 193.933C189.274 194 198.007 189.146 202.673 181.199L239.435 118.588C244.101 110.641 243.992 100.808 239.148 92.794L200.991 29.6553C196.148 21.641 187.306 16.6626 177.796 16.5955L102.877 16.0671C93.3677 16 84.635 20.8544 79.9688 28.8016L43.2071 91.4119C38.5409 99.3591 38.65 109.192 43.4933 117.206L81.6506 180.345C86.4939 188.359 95.3357 193.337 104.845 193.405Z" fill="url(#paint0_linear_3701_12239)"/>
<g opacity="0.19" filter="url(#filter0_f_3701_12239)">
<path d="M34.708 159.695C34.5531 156.661 51.6861 150.317 73.1644 149.22C94.6428 148.122 112.333 152.688 112.488 155.722C112.643 158.756 95.3569 162.104 73.8786 163.201C52.4002 164.298 34.863 162.728 34.708 159.695Z" fill="#1800B6"/>
</g>
<path opacity="0.21" d="M100.328 51.001L119.968 130.924C121.321 136.423 117.955 141.971 112.464 143.312L45.2806 159.76C39.7818 161.107 34.23 157.737 32.8836 152.246L10.2215 60.0219C8.86866 54.5232 12.2348 48.9756 17.7257 47.6343L72.6224 34.1987L100.335 51.0017L100.328 51.001Z" fill="black"/>
<path d="M100.328 51.001L119.968 130.924C121.321 136.423 117.955 141.971 112.464 143.312L45.2806 159.76C39.7818 161.107 34.23 157.737 32.8836 152.246L10.2215 60.0219C8.86866 54.5232 12.2348 48.9756 17.7257 47.6343L72.6224 34.1987L100.335 51.0017L100.328 51.001Z" fill="url(#paint1_linear_3701_12239)"/>
<path opacity="0.19" d="M98.8014 51.0028L87.0097 54.1533C81.845 55.5356 75.4179 53.9335 74.1906 48.455L72.6226 34.1989L98.8014 51.0028Z" fill="url(#paint2_linear_3701_12239)"/>
<path d="M100.657 51.1949L88.1028 54.2664C82.604 55.6141 77.0522 52.2439 75.7059 46.753L72.6226 34.1989L100.657 51.1949Z" fill="url(#paint3_linear_3701_12239)"/>
<g filter="url(#filter1_d_3701_12239)">
<path d="M40.501 54.9857C41.381 55.5236 41.6601 56.6759 41.1245 57.5594L32.9541 71.0362C32.4196 71.9178 31.2756 72.1993 30.3957 71.6656L23.1282 67.2572C22.2462 66.7222 21.9633 65.5706 22.4962 64.6851L23.4614 63.0817C23.9943 62.1964 25.1411 61.9124 26.0229 62.4473L28.515 63.959C29.3948 64.4927 30.5388 64.2113 31.0733 63.3298L36.3436 54.6375C36.8794 53.7538 38.0272 53.4735 38.9073 54.0115L40.501 54.9857Z" fill="url(#paint4_linear_3701_12239)"/>
</g>
<path d="M63.735 49.6205C64.2055 49.9078 64.3552 50.5215 64.0697 50.9928L61.2758 55.6043C60.9896 56.0766 61.1408 56.6918 61.6133 56.9783L66.2361 59.7803C66.7076 60.066 66.8593 60.6792 66.5754 61.1513L64.7131 64.2487C64.428 64.7229 63.8119 64.875 63.3384 64.588L58.7048 61.7798C58.2324 61.4935 57.6177 61.6441 57.3318 62.1163L54.5314 66.7396C54.2448 67.2129 53.6282 67.3629 53.1556 67.0745L50.0805 65.1972C49.6099 64.91 49.4601 64.2963 49.7455 63.825L52.539 59.2126C52.825 58.7403 52.6738 58.1251 52.2012 57.8387L47.5785 55.0375C47.107 54.7518 46.9552 54.1385 47.2391 53.6663L49.1014 50.569C49.3865 50.0948 50.0025 49.9427 50.476 50.2296L55.1099 53.0373C55.5822 53.3235 56.1968 53.1729 56.4828 52.7008L59.284 48.0773C59.5706 47.6041 60.1873 47.4541 60.6598 47.7426L63.735 49.6205Z" fill="url(#paint5_linear_3701_12239)"/>
<path d="M41.1877 146.722C41.3285 147.285 41.8152 147.647 42.2747 147.531L61.5085 142.68C61.9681 142.564 62.2264 142.014 62.0856 141.451L61.3857 138.654C61.2448 138.091 60.7581 137.729 60.2986 137.845L41.0648 142.696C40.6052 142.812 40.3469 143.362 40.4878 143.925L41.1877 146.722Z" fill="url(#paint6_linear_3701_12239)"/>
<path d="M38.7614 137.053C38.9022 137.616 39.3889 137.978 39.8484 137.863L82.0336 127.222C82.4931 127.106 82.7515 126.556 82.6106 125.993L81.9107 123.196C81.7699 122.633 81.2832 122.271 80.8236 122.387L38.6385 133.027C38.179 133.143 37.9206 133.693 38.0615 134.256L38.7614 137.053Z" fill="url(#paint7_linear_3701_12239)"/>
<path d="M36.3503 127.119C36.4912 127.681 36.9779 128.044 37.4374 127.928L102.468 111.776C102.928 111.66 103.186 111.11 103.045 110.547L102.346 107.75C102.205 107.187 101.718 106.824 101.258 106.94L36.2274 123.093C35.7679 123.208 35.5096 123.759 35.6504 124.322L36.3503 127.119Z" fill="url(#paint8_linear_3701_12239)"/>
<path d="M70.5766 108.456C70.7175 109.018 71.2042 109.381 71.6637 109.265L100.049 102.105C100.508 101.989 100.767 101.439 100.626 100.876L99.9259 98.0791C99.785 97.5162 99.2983 97.1539 98.8388 97.2698L70.4538 104.43C69.9942 104.545 69.7359 105.096 69.8767 105.659L70.5766 108.456Z" fill="url(#paint9_linear_3701_12239)"/>
<path d="M33.994 117.606C34.1349 118.169 34.6216 118.531 35.0811 118.415L55.7711 113.196C56.2306 113.08 56.489 112.53 56.3481 111.967L55.6482 109.17C55.5074 108.607 55.0207 108.245 54.5612 108.361L33.8711 113.58C33.4116 113.696 33.1533 114.246 33.2941 114.809L33.994 117.606Z" fill="url(#paint10_linear_3701_12239)"/>
<path d="M31.5057 108.057C31.6465 108.62 32.1332 108.982 32.5928 108.866L74.7779 98.2257C75.2375 98.1098 75.4958 97.5595 75.3549 96.9967L74.655 94.1997C74.5142 93.6369 74.0275 93.2745 73.568 93.3904L31.3828 104.031C30.9233 104.147 30.665 104.697 30.8058 105.26L31.5057 108.057Z" fill="url(#paint11_linear_3701_12239)"/>
<path d="M47.7395 80.4352C47.5987 79.8723 47.112 79.51 46.6524 79.6259L26.5513 84.6962C26.0918 84.8121 25.8335 85.3624 25.9743 85.9252L26.6742 88.7222C26.8151 89.2851 27.3018 89.6474 27.7613 89.5315L47.8624 84.4612C48.3219 84.3453 48.5803 83.795 48.4394 83.2321L47.7395 80.4352Z" fill="url(#paint12_linear_3701_12239)"/>
<path d="M58.4414 88.0084C58.3005 87.4456 57.8138 87.0832 57.3543 87.1991L28.9693 94.3589C28.5098 94.4748 28.2514 95.0251 28.3923 95.588L29.0922 98.3849C29.233 98.9478 29.7197 99.3101 30.1792 99.1942L58.5643 92.0344C59.0238 91.9185 59.2821 91.3682 59.1413 90.8054L58.4414 88.0084Z" fill="url(#paint13_linear_3701_12239)"/>
<path d="M69.854 140.471C69.9881 141.007 70.5309 141.332 71.0664 141.197L106.599 132.234C107.135 132.099 107.46 131.555 107.326 131.019L106.602 128.124C106.468 127.588 105.925 127.264 105.389 127.399L69.8564 136.361C69.3209 136.497 68.9955 137.04 69.1295 137.576L69.854 140.471Z" fill="url(#paint14_linear_3701_12239)"/>
<mask id="mask0_3701_12239" style="mask-type:luminance" maskUnits="userSpaceOnUse" x="68" y="86" width="62" height="62">
<path d="M99.3474 147.908C116.22 147.908 129.897 134.235 129.897 117.368C129.897 100.501 116.22 86.8274 99.3474 86.8274C82.4751 86.8274 68.7974 100.501 68.7974 117.368C68.7974 134.235 82.4751 147.908 99.3474 147.908Z" fill="white"/>
</mask>
<g mask="url(#mask0_3701_12239)">
<path d="M100.878 77.6964C100.506 76.6564 99.3616 76.1145 98.3215 76.4862L55.857 91.6608C54.8168 92.0325 54.2751 93.177 54.647 94.2171L56.1022 98.2865C56.4741 99.3266 57.6188 99.8684 58.6589 99.4968L101.123 84.3221C102.164 83.9504 102.705 82.806 102.333 81.7659L100.878 77.6964Z" fill="white"/>
<path d="M90.2512 156.78C90.6231 157.82 91.7678 158.362 92.808 157.99L123.518 147.016C124.559 146.644 125.1 145.5 124.728 144.46L123.273 140.39C122.901 139.35 121.757 138.808 120.717 139.18L90.006 150.154C88.9659 150.526 88.4242 151.671 88.7961 152.711L90.2512 156.78Z" fill="#4138B1"/>
<path d="M120.709 127.964C115.124 139.756 101.029 144.792 89.2332 139.209C77.4375 133.625 97.3799 130.718 102.965 118.926C108.551 107.134 97.6653 90.9149 109.461 96.4985C121.257 102.082 126.294 116.172 120.709 127.964Z" fill="#EFEFEF" fill-opacity="0.14"/>
</g>
<path d="M141.637 133.514L138.664 139.846L123.498 135.481L128.805 124.274L141.637 133.514Z" fill="url(#paint15_linear_3701_12239)"/>
<path d="M126.412 117.367C126.412 102.448 114.308 90.3274 99.3473 90.3274C84.3863 90.3276 72.2838 102.448 72.2836 117.367C72.2836 132.287 84.3862 144.408 99.3473 144.408C114.308 144.408 126.412 132.287 126.412 117.367ZM133.384 117.367C133.384 136.182 118.131 151.408 99.3473 151.408C80.564 151.408 65.3115 136.182 65.3115 117.367C65.3117 98.5535 80.5641 83.3276 99.3473 83.3274C118.131 83.3274 133.384 98.5534 133.384 117.367Z" fill="url(#paint16_linear_3701_12239)"/>
<path d="M125.416 116.367C125.416 101.448 113.312 89.3274 98.3512 89.3274C83.3903 89.3276 71.2877 101.448 71.2875 116.367C71.2875 131.287 83.3901 143.408 98.3512 143.408C113.312 143.408 125.416 131.287 125.416 116.367ZM132.388 116.367C132.388 135.182 117.135 150.408 98.3512 150.408C79.5679 150.408 64.3154 135.182 64.3154 116.367C64.3156 97.5535 79.568 82.3276 98.3512 82.3274C117.134 82.3274 132.388 97.5534 132.388 116.367Z" fill="url(#paint17_linear_3701_12239)"/>
<path d="M134.746 134.12C136.154 131.123 139.715 129.839 142.7 131.253L166.839 142.682C169.824 144.096 171.103 147.671 169.695 150.669C168.287 153.665 164.726 154.949 161.741 153.536L137.601 142.106C134.616 140.693 133.338 137.117 134.746 134.12Z" fill="url(#paint18_linear_3701_12239)"/>
<path d="M209.874 55.8452L211.179 57.8258L207.218 60.4375L205.858 59.9135L205.912 58.4569L209.874 55.8452Z" fill="#686386"/>
<path d="M224.318 47.7438L223.803 38.6952L225.933 37.2906L226.555 46.2689L234.56 50.3779L232.43 51.7825L224.318 47.7438Z" fill="#6A668B"/>
<path d="M228.435 45.0268L228.949 54.0605L215.695 62.802L207.597 58.77L207.082 49.7363L220.337 40.9949L228.435 45.0268Z" fill="#FED505"/>
<path d="M228.437 45.0464L228.95 54.0725L215.706 62.8064L207.614 58.7778L228.437 45.0464Z" fill="#F9BA00"/>
<path d="M228.872 54.1627L229.689 64.8505L221.823 70.0386L217.397 65.1567L218.224 61.1854L228.872 54.1627Z" fill="#DBDBE4"/>
<path d="M220.21 41.0272L210.71 36.0623L202.843 41.2504L205.587 47.2443L209.562 48.0499L220.21 41.0272Z" fill="#DBDBE4"/>
<path d="M217.391 52.3105L217.906 61.3591L215.776 62.7638L215.154 53.7854L207.149 49.6764L209.279 48.2718L217.391 52.3105Z" fill="#6A668B"/>
<path d="M222.2 49.1375L222.715 58.1861L220.585 59.5908L219.963 50.6124L211.958 46.5034L214.088 45.0988L222.2 49.1375Z" fill="#6A668B"/>
</g>
<defs>
<filter id="filter0_f_3701_12239" x="12.407" y="126.753" width="122.382" height="59.0982" filterUnits="userSpaceOnUse" color-interpolation-filters="sRGB">
<feFlood flood-opacity="0" result="BackgroundImageFix"/>
<feBlend mode="normal" in="SourceGraphic" in2="BackgroundImageFix" result="shape"/>
<feGaussianBlur stdDeviation="11.15" result="effect1_foregroundBlur_3701_12239"/>
</filter>
<filter id="filter1_d_3701_12239" x="8.72705" y="41.238" width="46.1694" height="45.1976" filterUnits="userSpaceOnUse" color-interpolation-filters="sRGB">
<feFlood flood-opacity="0" result="BackgroundImageFix"/>
<feColorMatrix in="SourceAlpha" type="matrix" values="0 0 0 0 0 0 0 0 0 0 0 0 0 0 0 0 0 0 127 0" result="hardAlpha"/>
<feOffset dy="1"/>
<feGaussianBlur stdDeviation="6.75"/>
<feComposite in2="hardAlpha" operator="out"/>
<feColorMatrix type="matrix" values="0 0 0 0 0.290196 0 0 0 0 0.258824 0 0 0 0 0.741176 0 0 0 1 0"/>
<feBlend mode="normal" in2="BackgroundImageFix" result="effect1_dropShadow_3701_12239"/>
<feBlend mode="normal" in="SourceGraphic" in2="effect1_dropShadow_3701_12239" result="shape"/>
</filter>
<linearGradient id="paint0_linear_3701_12239" x1="151.976" y1="217.349" x2="179.024" y2="-10.9995" gradientUnits="userSpaceOnUse">
<stop stop-color="#E2E1FF"/>
<stop offset="0.83831" stop-color="white"/>
</linearGradient>
<linearGradient id="paint1_linear_3701_12239" x1="151.475" y1="110.028" x2="14.6913" y2="46.9477" gradientUnits="userSpaceOnUse">
<stop offset="0.122306" stop-color="#938FFF"/>
<stop offset="0.44912" stop-color="#C5C6FF"/>
<stop offset="1" stop-color="#756FF4"/>
</linearGradient>
<linearGradient id="paint2_linear_3701_12239" x1="52.9786" y1="68.0637" x2="98.0501" y2="71.7018" gradientUnits="userSpaceOnUse">
<stop stop-color="#9999FB"/>
<stop offset="0.952413" stop-color="#0700E4"/>
</linearGradient>
<linearGradient id="paint3_linear_3701_12239" x1="51.9035" y1="67.9524" x2="100.008" y2="71.7645" gradientUnits="userSpaceOnUse">
<stop stop-color="#9999FB"/>
<stop offset="1" stop-color="#5550FF"/>
</linearGradient>
<linearGradient id="paint4_linear_3701_12239" x1="21.8564" y1="65.7279" x2="80.4362" y2="76.7753" gradientUnits="userSpaceOnUse">
<stop stop-color="#FCCE0B"/>
<stop offset="1" stop-color="#F4871B"/>
</linearGradient>
<linearGradient id="paint5_linear_3701_12239" x1="58.5716" y1="41.2025" x2="55.8198" y2="67.7844" gradientUnits="userSpaceOnUse">
<stop stop-color="#6D65D3"/>
<stop offset="1" stop-color="#5049C4"/>
</linearGradient>
<linearGradient id="paint6_linear_3701_12239" x1="53.5143" y1="123.624" x2="170.325" y2="45.7254" gradientUnits="userSpaceOnUse">
<stop stop-color="#4B43BE"/>
<stop offset="1" stop-color="#CA85FF"/>
</linearGradient>
<linearGradient id="paint7_linear_3701_12239" x1="53.5143" y1="123.624" x2="170.325" y2="45.7254" gradientUnits="userSpaceOnUse">
<stop stop-color="#4B43BE"/>
<stop offset="1" stop-color="#CA85FF"/>
</linearGradient>
<linearGradient id="paint8_linear_3701_12239" x1="53.5143" y1="123.624" x2="170.325" y2="45.7254" gradientUnits="userSpaceOnUse">
<stop stop-color="#4B43BE"/>
<stop offset="1" stop-color="#CA85FF"/>
</linearGradient>
<linearGradient id="paint9_linear_3701_12239" x1="53.5143" y1="123.624" x2="170.325" y2="45.7254" gradientUnits="userSpaceOnUse">
<stop stop-color="#4B43BE"/>
<stop offset="1" stop-color="#CA85FF"/>
</linearGradient>
<linearGradient id="paint10_linear_3701_12239" x1="53.5143" y1="123.624" x2="170.325" y2="45.7254" gradientUnits="userSpaceOnUse">
<stop stop-color="#4B43BE"/>
<stop offset="1" stop-color="#CA85FF"/>
</linearGradient>
<linearGradient id="paint11_linear_3701_12239" x1="53.5143" y1="123.624" x2="170.325" y2="45.7254" gradientUnits="userSpaceOnUse">
<stop stop-color="#4B43BE"/>
<stop offset="1" stop-color="#CA85FF"/>
</linearGradient>
<linearGradient id="paint12_linear_3701_12239" x1="53.5143" y1="123.624" x2="170.325" y2="45.7254" gradientUnits="userSpaceOnUse">
<stop stop-color="#4B43BE"/>
<stop offset="1" stop-color="#CA85FF"/>
</linearGradient>
<linearGradient id="paint13_linear_3701_12239" x1="53.5143" y1="123.624" x2="170.325" y2="45.7254" gradientUnits="userSpaceOnUse">
<stop stop-color="#4B43BE"/>
<stop offset="1" stop-color="#CA85FF"/>
</linearGradient>
<linearGradient id="paint14_linear_3701_12239" x1="69.194" y1="141.375" x2="234.605" y2="106.075" gradientUnits="userSpaceOnUse">
<stop stop-color="white" stop-opacity="0.82"/>
<stop offset="1" stop-color="#A1A3FF"/>
</linearGradient>
<linearGradient id="paint15_linear_3701_12239" x1="104.496" y1="74.5622" x2="94.7637" y2="140.445" gradientUnits="userSpaceOnUse">
<stop stop-color="#CAD1FF"/>
<stop offset="0.716437" stop-color="#6F6CFB"/>
<stop offset="1" stop-color="#4A42BD"/>
</linearGradient>
<linearGradient id="paint16_linear_3701_12239" x1="89.8456" y1="163.179" x2="127.702" y2="17.1791" gradientUnits="userSpaceOnUse">
<stop stop-color="#FE9936"/>
<stop offset="1" stop-color="#F7DA21"/>
</linearGradient>
<linearGradient id="paint17_linear_3701_12239" x1="88.8495" y1="162.179" x2="126.706" y2="16.1791" gradientUnits="userSpaceOnUse">
<stop stop-color="#FDBD08"/>
<stop offset="1" stop-color="#FFE958"/>
</linearGradient>
<linearGradient id="paint18_linear_3701_12239" x1="141.208" y1="130.678" x2="190.11" y2="189.423" gradientUnits="userSpaceOnUse">
<stop stop-color="#FCCE0B"/>
<stop offset="1" stop-color="#F4871B"/>
</linearGradient>
<clipPath id="clip0_3701_12239">
<rect width="260" height="210" fill="white"/>
</clipPath>
</defs>
</svg>
