<svg width="260" height="210" viewBox="0 0 260 210" fill="none" xmlns="http://www.w3.org/2000/svg">
<g clip-path="url(#clip0_3701_12450)">
<path d="M185.748 11.6484L106.197 10.5724C96.0997 10.4359 86.7935 15.5305 81.7839 23.9374L42.3176 90.1685C37.308 98.5753 37.3564 109.017 42.4443 117.56L82.5283 184.868C87.6162 193.411 96.9708 198.758 107.068 198.895L186.619 199.971C196.716 200.107 206.022 195.013 211.032 186.606L250.498 120.375C255.508 111.968 255.459 101.526 250.372 92.9826L210.288 25.6755C205.2 17.1321 195.845 11.785 185.748 11.6484Z" fill="url(#paint0_linear_3701_12450)"/>
<path d="M182.399 51.4386C182.399 51.4376 182.398 51.4378 182.398 51.4388L182.888 146.553C182.894 147.657 182.003 148.557 180.899 148.563L29.3974 149.346C28.2928 149.352 27.3928 148.461 27.3871 147.356L26.8961 52.2356C26.8737 48.9172 29.5503 46.2171 32.8722 46.2077L176.373 45.469C179.689 45.4466 182.388 48.1196 182.401 51.4383C182.401 51.4394 182.4 51.4396 182.399 51.4386Z" fill="url(#paint1_linear_3701_12450)"/>
<g opacity="0.4" filter="url(#filter0_f_3701_12450)">
<path d="M212.889 163.543C212.889 168.08 174.023 168.81 135.361 168.81C96.6985 168.81 55.543 150.415 55.543 145.878C55.543 141.342 96.6985 147.901 135.361 147.901C174.023 147.901 212.889 159.007 212.889 163.543Z" fill="#1800B6"/>
</g>
<path d="M34.7175 52.2161C33.613 52.2218 32.7222 53.1218 32.7278 54.2263L33.168 139.949C33.1736 141.054 34.0736 141.945 35.1782 141.939L174.779 141.222C175.883 141.217 176.774 140.317 176.768 139.212L176.328 53.4891C176.323 52.3845 175.423 51.4937 174.318 51.4994L34.7175 52.2161Z" fill="white"/>
<mask id="mask0_3701_12450" style="mask-type:alpha" maskUnits="userSpaceOnUse" x="32" y="51" width="145" height="91">
<path d="M34.7175 52.2159C33.613 52.2215 32.7222 53.1216 32.7278 54.2261L33.168 139.949C33.1736 141.054 34.0736 141.944 35.1782 141.939L174.779 141.222C175.883 141.216 176.774 140.316 176.768 139.212L176.328 53.4888C176.323 52.3843 175.422 51.4935 174.318 51.4991L34.7175 52.2159Z" fill="#00141B"/>
</mask>
<g mask="url(#mask0_3701_12450)">
<path d="M49.3467 55.7871L41.9355 57.4966C40.4222 57.855 39.2064 58.9848 38.7335 60.4735L36.5222 67.7475C36.0757 69.2444 36.4452 70.8624 37.512 72.0009L42.7028 77.5481C43.7696 78.6866 45.3549 79.1748 46.8774 78.8337L54.2885 77.1242C55.8019 76.7658 57.0176 75.636 57.4906 74.1472L59.7018 66.8733C60.1484 65.3764 59.7788 63.7584 58.712 62.6199L53.5212 57.0727C52.4544 55.9342 50.8691 55.446 49.3467 55.7871Z" fill="url(#paint2_linear_3701_12450)"/>
<path d="M164.354 72.8944C164.354 72.3421 163.906 71.8944 163.354 71.8944L122.11 71.8943C121.557 71.8943 121.11 72.342 121.11 72.8943L121.11 75.5405C121.11 76.0928 121.557 76.5405 122.11 76.5405L163.354 76.5405C163.906 76.5405 164.354 76.0928 164.354 75.5405L164.354 72.8944Z" fill="url(#paint3_linear_3701_12450)"/>
<path d="M170.797 81.0256C170.797 80.4733 170.349 80.0257 169.797 80.0257L122.03 80.0256C121.478 80.0256 121.03 80.4733 121.03 81.0256L121.03 83.6721C121.03 84.2244 121.478 84.6721 122.03 84.6721L169.797 84.6721C170.349 84.6721 170.797 84.2244 170.797 83.6721L170.797 81.0256Z" fill="url(#paint4_linear_3701_12450)"/>
<path d="M152.648 89.4517C152.648 88.8994 152.2 88.4517 151.648 88.4517L122.189 88.4517C121.637 88.4517 121.189 88.8994 121.189 89.4517L121.189 91.8036C121.189 92.3559 121.637 92.8036 122.189 92.8036L151.648 92.8036C152.2 92.8036 152.648 92.3559 152.648 91.8036L152.648 89.4517Z" fill="url(#paint5_linear_3701_12450)"/>
<path d="M95.6702 111.99C95.6702 111.437 95.2225 110.99 94.6702 110.99L43.4458 110.991C42.8935 110.991 42.4459 111.439 42.4459 111.991L42.4459 114.345C42.4459 114.897 42.8936 115.345 43.4459 115.345L94.6703 115.344C95.2225 115.344 95.6702 114.896 95.6702 114.344L95.6702 111.99Z" fill="url(#paint6_linear_3701_12450)"/>
<path d="M129.474 119.611C129.474 119.059 129.026 118.611 128.474 118.611L43.3062 118.611C42.7539 118.611 42.3062 119.059 42.3062 119.611L42.3062 121.966C42.3062 122.518 42.7539 122.966 43.3062 122.966L128.474 122.966C129.027 122.966 129.474 122.518 129.474 121.965L129.474 119.611Z" fill="url(#paint7_linear_3701_12450)"/>
<path d="M76.9207 127.508C76.9207 126.955 76.4729 126.508 75.9207 126.508L43.5849 126.508C43.0326 126.508 42.5849 126.955 42.5849 127.508L42.5849 129.586C42.5849 130.138 43.0326 130.586 43.5849 130.586L75.9207 130.586C76.473 130.586 76.9207 130.138 76.9207 129.586L76.9207 127.508Z" fill="url(#paint8_linear_3701_12450)"/>
<path d="M137.496 127.508C137.496 126.955 137.048 126.508 136.496 126.508L86.3663 126.508C85.814 126.508 85.3663 126.955 85.3663 127.508L85.3663 129.586C85.3663 130.138 85.814 130.586 86.3663 130.586L136.496 130.586C137.048 130.586 137.496 130.138 137.496 129.586L137.496 127.508Z" fill="url(#paint9_linear_3701_12450)"/>
<path d="M39.2565 84.4394C38.9676 72.0792 52.4545 63.3978 64.2919 70.182C68.1916 72.417 71.5021 75.7271 75.0616 79.3424C75.2234 79.5067 75.2982 79.4898 75.4496 79.3371C81.0172 73.724 89.0788 65.1651 100.37 68.4951C105.123 69.8965 108.425 72.9799 110.116 77.6262C115.778 93.1763 99.5369 106.051 85.6094 97.5163C82.0967 95.3638 79.0631 92.3937 75.4772 88.7414C75.2858 88.5464 75.1995 88.574 75.0245 88.7505C70.9506 92.8591 66.5654 97.325 61.1489 99.1946C50.1267 102.999 39.5604 96.4303 39.2565 84.4394ZM46.1537 84.1998C46.5051 91.3396 51.9966 94.668 57.8476 93.4024C62.9042 92.3086 67.1461 87.8609 70.759 84.1465C70.8807 84.0213 70.8125 83.9705 70.7288 83.8925C67.5908 80.963 64.5263 77.3847 60.6642 75.5433C53.1788 71.9743 46.1285 77.2083 46.1537 84.1998ZM104.356 83.898C104.134 76.9979 98.6906 73.2377 92.4184 74.7091C87.4834 75.8668 83.2663 80.2934 79.7626 83.8937C79.6411 84.0186 79.6877 84.0769 79.7873 84.1699C84.168 88.2584 89.3374 94.7138 96.3218 93.5372C100.974 92.7536 104.367 88.701 104.356 83.898Z" fill="url(#paint10_linear_3701_12450)"/>
</g>
<path d="M11.5994 150.827C11.355 149.749 12.2685 148.838 13.373 148.833L192.89 147.911C193.995 147.905 194.917 148.807 194.684 149.887C193.799 153.982 190.167 157.059 185.803 157.081L20.5538 157.93C16.19 157.952 12.5264 154.913 11.5994 150.827Z" fill="url(#paint11_linear_3701_12450)"/>
<path d="M86.125 148.459L121.006 148.28C121.019 150.797 118.986 152.851 116.469 152.864L90.7213 152.997C88.2044 153.009 86.1497 150.976 86.1368 148.459L86.125 148.459Z" fill="url(#paint12_linear_3701_12450)"/>
<path d="M212.735 140.434C213.839 140.445 214.732 141.353 214.644 142.453C213.474 156.973 201.221 168.328 186.446 168.16C171 167.984 158.569 155.339 158.741 139.872C158.887 125.082 170.485 113.08 185.029 112.215C186.131 112.15 187.019 113.062 187.008 114.166L186.758 138.164C186.747 139.268 187.633 140.173 188.737 140.184L212.735 140.434Z" fill="url(#paint13_linear_3701_12450)"/>
<path d="M218.166 135.513C218.232 136.615 217.32 137.503 216.216 137.491L192.218 137.242C191.113 137.23 190.227 136.326 190.239 135.221L190.488 111.224C190.5 110.12 191.407 109.226 192.508 109.315C206.352 110.435 217.34 121.63 218.166 135.513Z" fill="url(#paint14_linear_3701_12450)"/>
</g>
<defs>
<filter id="filter0_f_3701_12450" x="33.243" y="121.98" width="201.946" height="69.1303" filterUnits="userSpaceOnUse" color-interpolation-filters="sRGB">
<feFlood flood-opacity="0" result="BackgroundImageFix"/>
<feBlend mode="normal" in="SourceGraphic" in2="BackgroundImageFix" result="shape"/>
<feGaussianBlur stdDeviation="11.15" result="effect1_foregroundBlur_3701_12450"/>
</filter>
<linearGradient id="paint0_linear_3701_12450" x1="135.866" y1="-14.1013" x2="105.575" y2="228.189" gradientUnits="userSpaceOnUse">
<stop stop-color="#E2E1FF"/>
<stop offset="0.83831" stop-color="white"/>
</linearGradient>
<linearGradient id="paint1_linear_3701_12450" x1="26.474" y1="45.6773" x2="248.345" y2="207.724" gradientUnits="userSpaceOnUse">
<stop stop-color="#CAD1FF"/>
<stop offset="0.211056" stop-color="#6F6CFB"/>
<stop offset="0.722759" stop-color="#4A42BD"/>
</linearGradient>
<linearGradient id="paint2_linear_3701_12450" x1="42.6381" y1="56.9644" x2="63.9462" y2="99.5913" gradientUnits="userSpaceOnUse">
<stop stop-color="#DFE4FF"/>
<stop offset="0.470573" stop-color="#F4F8FF"/>
</linearGradient>
<linearGradient id="paint3_linear_3701_12450" x1="121.03" y1="71.8943" x2="194.954" y2="138.752" gradientUnits="userSpaceOnUse">
<stop stop-color="#C3D1FF"/>
<stop offset="1" stop-color="#8090FE"/>
</linearGradient>
<linearGradient id="paint4_linear_3701_12450" x1="121.03" y1="71.8943" x2="194.954" y2="138.752" gradientUnits="userSpaceOnUse">
<stop stop-color="#C3D1FF"/>
<stop offset="1" stop-color="#8090FE"/>
</linearGradient>
<linearGradient id="paint5_linear_3701_12450" x1="121.03" y1="71.8943" x2="194.954" y2="138.752" gradientUnits="userSpaceOnUse">
<stop stop-color="#C3D1FF"/>
<stop offset="1" stop-color="#8090FE"/>
</linearGradient>
<linearGradient id="paint6_linear_3701_12450" x1="42.3061" y1="110.989" x2="103.33" y2="214.142" gradientUnits="userSpaceOnUse">
<stop stop-color="#DEE5FF"/>
<stop offset="1" stop-color="#8090FE"/>
</linearGradient>
<linearGradient id="paint7_linear_3701_12450" x1="42.3061" y1="110.989" x2="103.33" y2="214.142" gradientUnits="userSpaceOnUse">
<stop stop-color="#DEE5FF"/>
<stop offset="1" stop-color="#8090FE"/>
</linearGradient>
<linearGradient id="paint8_linear_3701_12450" x1="42.3061" y1="110.989" x2="103.33" y2="214.142" gradientUnits="userSpaceOnUse">
<stop stop-color="#DEE5FF"/>
<stop offset="1" stop-color="#8090FE"/>
</linearGradient>
<linearGradient id="paint9_linear_3701_12450" x1="42.3061" y1="110.989" x2="103.33" y2="214.142" gradientUnits="userSpaceOnUse">
<stop stop-color="#DEE5FF"/>
<stop offset="1" stop-color="#8090FE"/>
</linearGradient>
<linearGradient id="paint10_linear_3701_12450" x1="42.4791" y1="63.0053" x2="57.3005" y2="127.188" gradientUnits="userSpaceOnUse">
<stop stop-color="#FFCE00"/>
<stop offset="0.523703" stop-color="#F8AE12"/>
<stop offset="1" stop-color="#F4871B"/>
</linearGradient>
<linearGradient id="paint11_linear_3701_12450" x1="-12.1177" y1="113.703" x2="190.309" y2="157.664" gradientUnits="userSpaceOnUse">
<stop offset="0.321364" stop-color="#928FFD"/>
<stop offset="0.551401" stop-color="#A0ACFB"/>
<stop offset="1" stop-color="#837EF1"/>
</linearGradient>
<linearGradient id="paint12_linear_3701_12450" x1="85.2032" y1="150.744" x2="125.225" y2="150.539" gradientUnits="userSpaceOnUse">
<stop stop-color="#7B7AFF"/>
<stop offset="1" stop-color="#4138B1"/>
</linearGradient>
<linearGradient id="paint13_linear_3701_12450" x1="155.355" y1="108.942" x2="217.959" y2="191.326" gradientUnits="userSpaceOnUse">
<stop stop-color="#FCCE0B"/>
<stop offset="0.455219" stop-color="#F8AE12"/>
<stop offset="1" stop-color="#F4871B"/>
</linearGradient>
<linearGradient id="paint14_linear_3701_12450" x1="190.37" y1="123.204" x2="236.586" y2="164.514" gradientUnits="userSpaceOnUse">
<stop stop-color="#FCCE0B"/>
<stop offset="1" stop-color="#F4871B"/>
</linearGradient>
<clipPath id="clip0_3701_12450">
<rect width="260" height="210" fill="white"/>
</clipPath>
</defs>
</svg>
